<?xml version="1.0" encoding="utf-8" standalone="no"?>
<!DOCTYPE svg PUBLIC "-//W3C//DTD SVG 1.1//EN"
  "http://www.w3.org/Graphics/SVG/1.1/DTD/svg11.dtd">
<!-- Created with matplotlib (http://matplotlib.org/) -->
<svg height="360pt" version="1.1" viewBox="0 0 360 360" width="360pt" xmlns="http://www.w3.org/2000/svg" xmlns:xlink="http://www.w3.org/1999/xlink">
 <defs>
  <style type="text/css">
*{stroke-linecap:butt;stroke-linejoin:round;}
  </style>
 </defs>
 <g id="figure_1">
  <g id="patch_1">
   <path d="M 0 360 
L 360 360 
L 360 0 
L 0 0 
z
" style="fill:#ffffff;"/>
  </g>
  <g id="axes_1">
   <g id="patch_2">
    <path d="M 45 315 
L 324 315 
L 324 43.2 
L 45 43.2 
z
" style="fill:#ffffff;"/>
   </g>
   <g id="matplotlib.axis_1">
    <g id="xtick_1">
     <g id="line2d_1">
      <defs>
       <path d="M 0 0 
L 0 3.5 
" id="m8755183185" style="stroke:#000000;stroke-width:0.8;"/>
      </defs>
      <g>
       <use style="stroke:#000000;stroke-width:0.8;" x="45.449418" xlink:href="#m8755183185" y="315"/>
      </g>
     </g>
     <g id="text_1">
      <!-- −2.5 -->
      <defs>
       <path d="M 10.59375 35.5 
L 73.1875 35.5 
L 73.1875 27.203125 
L 10.59375 27.203125 
z
" id="DejaVuSans-2212"/>
       <path d="M 19.1875 8.296875 
L 53.609375 8.296875 
L 53.609375 0 
L 7.328125 0 
L 7.328125 8.296875 
Q 12.9375 14.109375 22.625 23.890625 
Q 32.328125 33.6875 34.8125 36.53125 
Q 39.546875 41.84375 41.421875 45.53125 
Q 43.3125 49.21875 43.3125 52.78125 
Q 43.3125 58.59375 39.234375 62.25 
Q 35.15625 65.921875 28.609375 65.921875 
Q 23.96875 65.921875 18.8125 64.3125 
Q 13.671875 62.703125 7.8125 59.421875 
L 7.8125 69.390625 
Q 13.765625 71.78125 18.9375 73 
Q 24.125 74.21875 28.421875 74.21875 
Q 39.75 74.21875 46.484375 68.546875 
Q 53.21875 62.890625 53.21875 53.421875 
Q 53.21875 48.921875 51.53125 44.890625 
Q 49.859375 40.875 45.40625 35.40625 
Q 44.1875 33.984375 37.640625 27.21875 
Q 31.109375 20.453125 19.1875 8.296875 
z
" id="DejaVuSans-32"/>
       <path d="M 10.6875 12.40625 
L 21 12.40625 
L 21 0 
L 10.6875 0 
z
" id="DejaVuSans-2e"/>
       <path d="M 10.796875 72.90625 
L 49.515625 72.90625 
L 49.515625 64.59375 
L 19.828125 64.59375 
L 19.828125 46.734375 
Q 21.96875 47.46875 24.109375 47.828125 
Q 26.265625 48.1875 28.421875 48.1875 
Q 40.625 48.1875 47.75 41.5 
Q 54.890625 34.8125 54.890625 23.390625 
Q 54.890625 11.625 47.5625 5.09375 
Q 40.234375 -1.421875 26.90625 -1.421875 
Q 22.3125 -1.421875 17.546875 -0.640625 
Q 12.796875 0.140625 7.71875 1.703125 
L 7.71875 11.625 
Q 12.109375 9.234375 16.796875 8.0625 
Q 21.484375 6.890625 26.703125 6.890625 
Q 35.15625 6.890625 40.078125 11.328125 
Q 45.015625 15.765625 45.015625 23.390625 
Q 45.015625 31 40.078125 35.4375 
Q 35.15625 39.890625 26.703125 39.890625 
Q 22.75 39.890625 18.8125 39.015625 
Q 14.890625 38.140625 10.796875 36.28125 
z
" id="DejaVuSans-35"/>
      </defs>
      <g transform="translate(33.308012 329.598437)scale(0.1 -0.1)">
       <use xlink:href="#DejaVuSans-2212"/>
       <use x="83.789062" xlink:href="#DejaVuSans-32"/>
       <use x="147.412109" xlink:href="#DejaVuSans-2e"/>
       <use x="179.199219" xlink:href="#DejaVuSans-35"/>
      </g>
     </g>
    </g>
    <g id="xtick_2">
     <g id="line2d_2">
      <g>
       <use style="stroke:#000000;stroke-width:0.8;" x="77.080467" xlink:href="#m8755183185" y="315"/>
      </g>
     </g>
     <g id="text_2">
      <!-- −2.0 -->
      <defs>
       <path d="M 31.78125 66.40625 
Q 24.171875 66.40625 20.328125 58.90625 
Q 16.5 51.421875 16.5 36.375 
Q 16.5 21.390625 20.328125 13.890625 
Q 24.171875 6.390625 31.78125 6.390625 
Q 39.453125 6.390625 43.28125 13.890625 
Q 47.125 21.390625 47.125 36.375 
Q 47.125 51.421875 43.28125 58.90625 
Q 39.453125 66.40625 31.78125 66.40625 
z
M 31.78125 74.21875 
Q 44.046875 74.21875 50.515625 64.515625 
Q 56.984375 54.828125 56.984375 36.375 
Q 56.984375 17.96875 50.515625 8.265625 
Q 44.046875 -1.421875 31.78125 -1.421875 
Q 19.53125 -1.421875 13.0625 8.265625 
Q 6.59375 17.96875 6.59375 36.375 
Q 6.59375 54.828125 13.0625 64.515625 
Q 19.53125 74.21875 31.78125 74.21875 
z
" id="DejaVuSans-30"/>
      </defs>
      <g transform="translate(64.93906 329.598437)scale(0.1 -0.1)">
       <use xlink:href="#DejaVuSans-2212"/>
       <use x="83.789062" xlink:href="#DejaVuSans-32"/>
       <use x="147.412109" xlink:href="#DejaVuSans-2e"/>
       <use x="179.199219" xlink:href="#DejaVuSans-30"/>
      </g>
     </g>
    </g>
    <g id="xtick_3">
     <g id="line2d_3">
      <g>
       <use style="stroke:#000000;stroke-width:0.8;" x="108.711515" xlink:href="#m8755183185" y="315"/>
      </g>
     </g>
     <g id="text_3">
      <!-- −1.5 -->
      <defs>
       <path d="M 12.40625 8.296875 
L 28.515625 8.296875 
L 28.515625 63.921875 
L 10.984375 60.40625 
L 10.984375 69.390625 
L 28.421875 72.90625 
L 38.28125 72.90625 
L 38.28125 8.296875 
L 54.390625 8.296875 
L 54.390625 0 
L 12.40625 0 
z
" id="DejaVuSans-31"/>
      </defs>
      <g transform="translate(96.570109 329.598437)scale(0.1 -0.1)">
       <use xlink:href="#DejaVuSans-2212"/>
       <use x="83.789062" xlink:href="#DejaVuSans-31"/>
       <use x="147.412109" xlink:href="#DejaVuSans-2e"/>
       <use x="179.199219" xlink:href="#DejaVuSans-35"/>
      </g>
     </g>
    </g>
    <g id="xtick_4">
     <g id="line2d_4">
      <g>
       <use style="stroke:#000000;stroke-width:0.8;" x="140.342563" xlink:href="#m8755183185" y="315"/>
      </g>
     </g>
     <g id="text_4">
      <!-- −1.0 -->
      <g transform="translate(128.201157 329.598437)scale(0.1 -0.1)">
       <use xlink:href="#DejaVuSans-2212"/>
       <use x="83.789062" xlink:href="#DejaVuSans-31"/>
       <use x="147.412109" xlink:href="#DejaVuSans-2e"/>
       <use x="179.199219" xlink:href="#DejaVuSans-30"/>
      </g>
     </g>
    </g>
    <g id="xtick_5">
     <g id="line2d_5">
      <g>
       <use style="stroke:#000000;stroke-width:0.8;" x="171.973612" xlink:href="#m8755183185" y="315"/>
      </g>
     </g>
     <g id="text_5">
      <!-- −0.5 -->
      <g transform="translate(159.832206 329.598437)scale(0.1 -0.1)">
       <use xlink:href="#DejaVuSans-2212"/>
       <use x="83.789062" xlink:href="#DejaVuSans-30"/>
       <use x="147.412109" xlink:href="#DejaVuSans-2e"/>
       <use x="179.199219" xlink:href="#DejaVuSans-35"/>
      </g>
     </g>
    </g>
    <g id="xtick_6">
     <g id="line2d_6">
      <g>
       <use style="stroke:#000000;stroke-width:0.8;" x="203.60466" xlink:href="#m8755183185" y="315"/>
      </g>
     </g>
     <g id="text_6">
      <!-- 0.0 -->
      <g transform="translate(195.653098 329.598437)scale(0.1 -0.1)">
       <use xlink:href="#DejaVuSans-30"/>
       <use x="63.623047" xlink:href="#DejaVuSans-2e"/>
       <use x="95.410156" xlink:href="#DejaVuSans-30"/>
      </g>
     </g>
    </g>
    <g id="xtick_7">
     <g id="line2d_7">
      <g>
       <use style="stroke:#000000;stroke-width:0.8;" x="235.235708" xlink:href="#m8755183185" y="315"/>
      </g>
     </g>
     <g id="text_7">
      <!-- 0.5 -->
      <g transform="translate(227.284146 329.598437)scale(0.1 -0.1)">
       <use xlink:href="#DejaVuSans-30"/>
       <use x="63.623047" xlink:href="#DejaVuSans-2e"/>
       <use x="95.410156" xlink:href="#DejaVuSans-35"/>
      </g>
     </g>
    </g>
    <g id="xtick_8">
     <g id="line2d_8">
      <g>
       <use style="stroke:#000000;stroke-width:0.8;" x="266.866757" xlink:href="#m8755183185" y="315"/>
      </g>
     </g>
     <g id="text_8">
      <!-- 1.0 -->
      <g transform="translate(258.915194 329.598437)scale(0.1 -0.1)">
       <use xlink:href="#DejaVuSans-31"/>
       <use x="63.623047" xlink:href="#DejaVuSans-2e"/>
       <use x="95.410156" xlink:href="#DejaVuSans-30"/>
      </g>
     </g>
    </g>
    <g id="xtick_9">
     <g id="line2d_9">
      <g>
       <use style="stroke:#000000;stroke-width:0.8;" x="298.497805" xlink:href="#m8755183185" y="315"/>
      </g>
     </g>
     <g id="text_9">
      <!-- 1.5 -->
      <g transform="translate(290.546243 329.598437)scale(0.1 -0.1)">
       <use xlink:href="#DejaVuSans-31"/>
       <use x="63.623047" xlink:href="#DejaVuSans-2e"/>
       <use x="95.410156" xlink:href="#DejaVuSans-35"/>
      </g>
     </g>
    </g>
    <g id="text_10">
     <!-- $y_1$ -->
     <defs>
      <path d="M 24.8125 -5.078125 
Q 18.5625 -15.578125 14.625 -18.1875 
Q 10.6875 -20.796875 4.59375 -20.796875 
L -2.484375 -20.796875 
L -0.984375 -13.28125 
L 4.203125 -13.28125 
Q 7.953125 -13.28125 10.59375 -11.234375 
Q 13.234375 -9.1875 16.5 -3.21875 
L 19.28125 2 
L 7.171875 54.6875 
L 16.703125 54.6875 
L 25.78125 12.796875 
L 50.875 54.6875 
L 60.296875 54.6875 
z
" id="DejaVuSans-Oblique-79"/>
     </defs>
     <g transform="translate(173.8 350.834375)scale(0.2 -0.2)">
      <use transform="translate(0 0.3125)" xlink:href="#DejaVuSans-Oblique-79"/>
      <use transform="translate(59.179688 -16.09375)scale(0.7)" xlink:href="#DejaVuSans-31"/>
     </g>
    </g>
   </g>
   <g id="matplotlib.axis_2">
    <g id="ytick_1">
     <g id="line2d_10">
      <defs>
       <path d="M 0 0 
L -3.5 0 
" id="m9513e079a2" style="stroke:#000000;stroke-width:0.8;"/>
      </defs>
      <g>
       <use style="stroke:#000000;stroke-width:0.8;" x="45" xlink:href="#m9513e079a2" y="288.956476"/>
      </g>
     </g>
     <g id="text_11">
      <!-- −2 -->
      <g transform="translate(23.257812 292.755695)scale(0.1 -0.1)">
       <use xlink:href="#DejaVuSans-2212"/>
       <use x="83.789062" xlink:href="#DejaVuSans-32"/>
      </g>
     </g>
    </g>
    <g id="ytick_2">
     <g id="line2d_11">
      <g>
       <use style="stroke:#000000;stroke-width:0.8;" x="45" xlink:href="#m9513e079a2" y="229.983883"/>
      </g>
     </g>
     <g id="text_12">
      <!-- −1 -->
      <g transform="translate(23.257812 233.783102)scale(0.1 -0.1)">
       <use xlink:href="#DejaVuSans-2212"/>
       <use x="83.789062" xlink:href="#DejaVuSans-31"/>
      </g>
     </g>
    </g>
    <g id="ytick_3">
     <g id="line2d_12">
      <g>
       <use style="stroke:#000000;stroke-width:0.8;" x="45" xlink:href="#m9513e079a2" y="171.011291"/>
      </g>
     </g>
     <g id="text_13">
      <!-- 0 -->
      <g transform="translate(31.6375 174.810509)scale(0.1 -0.1)">
       <use xlink:href="#DejaVuSans-30"/>
      </g>
     </g>
    </g>
    <g id="ytick_4">
     <g id="line2d_13">
      <g>
       <use style="stroke:#000000;stroke-width:0.8;" x="45" xlink:href="#m9513e079a2" y="112.038698"/>
      </g>
     </g>
     <g id="text_14">
      <!-- 1 -->
      <g transform="translate(31.6375 115.837916)scale(0.1 -0.1)">
       <use xlink:href="#DejaVuSans-31"/>
      </g>
     </g>
    </g>
    <g id="ytick_5">
     <g id="line2d_14">
      <g>
       <use style="stroke:#000000;stroke-width:0.8;" x="45" xlink:href="#m9513e079a2" y="53.066105"/>
      </g>
     </g>
     <g id="text_15">
      <!-- 2 -->
      <g transform="translate(31.6375 56.865324)scale(0.1 -0.1)">
       <use xlink:href="#DejaVuSans-32"/>
      </g>
     </g>
    </g>
    <g id="text_16">
     <!-- $y_2$ -->
     <g transform="translate(15.057813 189.8)rotate(-90)scale(0.2 -0.2)">
      <use transform="translate(0 0.3125)" xlink:href="#DejaVuSans-Oblique-79"/>
      <use transform="translate(59.179688 -16.09375)scale(0.7)" xlink:href="#DejaVuSans-32"/>
     </g>
    </g>
   </g>
   <g id="line2d_15">
    <defs>
     <path d="M -3 3 
L 3 -3 
M -3 -3 
L 3 3 
" id="m1f5146d0ce" style="stroke:#ff0000;"/>
    </defs>
    <g clip-path="url(#pe7cad254b8)">
     <use style="fill:#ff0000;stroke:#ff0000;" x="247.488125" xlink:href="#m1f5146d0ce" y="120.280681"/>
     <use style="fill:#ff0000;stroke:#ff0000;" x="208.309335" xlink:href="#m1f5146d0ce" y="177.375234"/>
     <use style="fill:#ff0000;stroke:#ff0000;" x="199.450487" xlink:href="#m1f5146d0ce" y="284.375493"/>
     <use style="fill:#ff0000;stroke:#ff0000;" x="251.863647" xlink:href="#m1f5146d0ce" y="232.534236"/>
     <use style="fill:#ff0000;stroke:#ff0000;" x="176.853017" xlink:href="#m1f5146d0ce" y="155.940874"/>
     <use style="fill:#ff0000;stroke:#ff0000;" x="229.119407" xlink:href="#m1f5146d0ce" y="114.140415"/>
     <use style="fill:#ff0000;stroke:#ff0000;" x="212.740676" xlink:href="#m1f5146d0ce" y="171.291318"/>
     <use style="fill:#ff0000;stroke:#ff0000;" x="179.338724" xlink:href="#m1f5146d0ce" y="163.483021"/>
     <use style="fill:#ff0000;stroke:#ff0000;" x="230.45092" xlink:href="#m1f5146d0ce" y="216.00876"/>
     <use style="fill:#ff0000;stroke:#ff0000;" x="205.455284" xlink:href="#m1f5146d0ce" y="72.397289"/>
     <use style="fill:#ff0000;stroke:#ff0000;" x="169.261339" xlink:href="#m1f5146d0ce" y="105.596566"/>
     <use style="fill:#ff0000;stroke:#ff0000;" x="294.306785" xlink:href="#m1f5146d0ce" y="187.662889"/>
     <use style="fill:#ff0000;stroke:#ff0000;" x="63.72879" xlink:href="#m1f5146d0ce" y="236.514032"/>
     <use style="fill:#ff0000;stroke:#ff0000;" x="186.671157" xlink:href="#m1f5146d0ce" y="263.912022"/>
     <use style="fill:#ff0000;stroke:#ff0000;" x="199.86236" xlink:href="#m1f5146d0ce" y="230.992639"/>
     <use style="fill:#ff0000;stroke:#ff0000;" x="70.795378" xlink:href="#m1f5146d0ce" y="246.100162"/>
     <use style="fill:#ff0000;stroke:#ff0000;" x="238.887548" xlink:href="#m1f5146d0ce" y="215.179307"/>
     <use style="fill:#ff0000;stroke:#ff0000;" x="304.936846" xlink:href="#m1f5146d0ce" y="197.770353"/>
     <use style="fill:#ff0000;stroke:#ff0000;" x="274.518662" xlink:href="#m1f5146d0ce" y="160.512824"/>
     <use style="fill:#ff0000;stroke:#ff0000;" x="67.830844" xlink:href="#m1f5146d0ce" y="238.088699"/>
     <use style="fill:#ff0000;stroke:#ff0000;" x="188.242937" xlink:href="#m1f5146d0ce" y="136.513961"/>
     <use style="fill:#ff0000;stroke:#ff0000;" x="203.023351" xlink:href="#m1f5146d0ce" y="182.712564"/>
     <use style="fill:#ff0000;stroke:#ff0000;" x="213.614099" xlink:href="#m1f5146d0ce" y="64.582236"/>
     <use style="fill:#ff0000;stroke:#ff0000;" x="238.331338" xlink:href="#m1f5146d0ce" y="215.136551"/>
     <use style="fill:#ff0000;stroke:#ff0000;" x="180.765386" xlink:href="#m1f5146d0ce" y="168.454038"/>
     <use style="fill:#ff0000;stroke:#ff0000;" x="162.451948" xlink:href="#m1f5146d0ce" y="92.382618"/>
     <use style="fill:#ff0000;stroke:#ff0000;" x="139.060182" xlink:href="#m1f5146d0ce" y="196.198377"/>
     <use style="fill:#ff0000;stroke:#ff0000;" x="279.366935" xlink:href="#m1f5146d0ce" y="197.224133"/>
     <use style="fill:#ff0000;stroke:#ff0000;" x="172.158416" xlink:href="#m1f5146d0ce" y="92.520413"/>
     <use style="fill:#ff0000;stroke:#ff0000;" x="163.889368" xlink:href="#m1f5146d0ce" y="174.202273"/>
     <use style="fill:#ff0000;stroke:#ff0000;" x="91.707488" xlink:href="#m1f5146d0ce" y="186.384674"/>
     <use style="fill:#ff0000;stroke:#ff0000;" x="161.434119" xlink:href="#m1f5146d0ce" y="174.156149"/>
     <use style="fill:#ff0000;stroke:#ff0000;" x="311.318182" xlink:href="#m1f5146d0ce" y="196.844994"/>
     <use style="fill:#ff0000;stroke:#ff0000;" x="163.349097" xlink:href="#m1f5146d0ce" y="93.737965"/>
     <use style="fill:#ff0000;stroke:#ff0000;" x="223.191313" xlink:href="#m1f5146d0ce" y="228.390974"/>
     <use style="fill:#ff0000;stroke:#ff0000;" x="182.411085" xlink:href="#m1f5146d0ce" y="173.477533"/>
     <use style="fill:#ff0000;stroke:#ff0000;" x="163.970841" xlink:href="#m1f5146d0ce" y="172.088767"/>
     <use style="fill:#ff0000;stroke:#ff0000;" x="273.676714" xlink:href="#m1f5146d0ce" y="155.042843"/>
     <use style="fill:#ff0000;stroke:#ff0000;" x="57.681818" xlink:href="#m1f5146d0ce" y="234.338754"/>
     <use style="fill:#ff0000;stroke:#ff0000;" x="306.980982" xlink:href="#m1f5146d0ce" y="195.466308"/>
     <use style="fill:#ff0000;stroke:#ff0000;" x="238.512622" xlink:href="#m1f5146d0ce" y="215.153634"/>
     <use style="fill:#ff0000;stroke:#ff0000;" x="158.63998" xlink:href="#m1f5146d0ce" y="201.571103"/>
     <use style="fill:#ff0000;stroke:#ff0000;" x="228.72957" xlink:href="#m1f5146d0ce" y="221.046142"/>
     <use style="fill:#ff0000;stroke:#ff0000;" x="190.176223" xlink:href="#m1f5146d0ce" y="261.875897"/>
     <use style="fill:#ff0000;stroke:#ff0000;" x="179.666059" xlink:href="#m1f5146d0ce" y="147.915525"/>
     <use style="fill:#ff0000;stroke:#ff0000;" x="271.427495" xlink:href="#m1f5146d0ce" y="152.197662"/>
     <use style="fill:#ff0000;stroke:#ff0000;" x="92.498906" xlink:href="#m1f5146d0ce" y="195.488876"/>
     <use style="fill:#ff0000;stroke:#ff0000;" x="212.906934" xlink:href="#m1f5146d0ce" y="169.375173"/>
     <use style="fill:#ff0000;stroke:#ff0000;" x="255.642457" xlink:href="#m1f5146d0ce" y="227.592172"/>
     <use style="fill:#ff0000;stroke:#ff0000;" x="233.63444" xlink:href="#m1f5146d0ce" y="117.12984"/>
     <use style="fill:#ff0000;stroke:#ff0000;" x="214.402734" xlink:href="#m1f5146d0ce" y="63.84449"/>
     <use style="fill:#ff0000;stroke:#ff0000;" x="160.269995" xlink:href="#m1f5146d0ce" y="80.123568"/>
     <use style="fill:#ff0000;stroke:#ff0000;" x="190.227839" xlink:href="#m1f5146d0ce" y="259.959454"/>
     <use style="fill:#ff0000;stroke:#ff0000;" x="185.140474" xlink:href="#m1f5146d0ce" y="143.855788"/>
     <use style="fill:#ff0000;stroke:#ff0000;" x="68.619205" xlink:href="#m1f5146d0ce" y="243.11433"/>
     <use style="fill:#ff0000;stroke:#ff0000;" x="275.293377" xlink:href="#m1f5146d0ce" y="146.497419"/>
     <use style="fill:#ff0000;stroke:#ff0000;" x="239.987066" xlink:href="#m1f5146d0ce" y="215.223993"/>
     <use style="fill:#ff0000;stroke:#ff0000;" x="151.503218" xlink:href="#m1f5146d0ce" y="208.000465"/>
     <use style="fill:#ff0000;stroke:#ff0000;" x="153.718876" xlink:href="#m1f5146d0ce" y="217.162625"/>
     <use style="fill:#ff0000;stroke:#ff0000;" x="92.10475" xlink:href="#m1f5146d0ce" y="192.529596"/>
     <use style="fill:#ff0000;stroke:#ff0000;" x="69.752248" xlink:href="#m1f5146d0ce" y="241.325242"/>
     <use style="fill:#ff0000;stroke:#ff0000;" x="160.810352" xlink:href="#m1f5146d0ce" y="198.745731"/>
     <use style="fill:#ff0000;stroke:#ff0000;" x="192.051644" xlink:href="#m1f5146d0ce" y="264.775505"/>
     <use style="fill:#ff0000;stroke:#ff0000;" x="198.01779" xlink:href="#m1f5146d0ce" y="285.090124"/>
     <use style="fill:#ff0000;stroke:#ff0000;" x="276.444662" xlink:href="#m1f5146d0ce" y="154.270462"/>
     <use style="fill:#ff0000;stroke:#ff0000;" x="152.47045" xlink:href="#m1f5146d0ce" y="155.867599"/>
     <use style="fill:#ff0000;stroke:#ff0000;" x="159.364958" xlink:href="#m1f5146d0ce" y="165.664681"/>
     <use style="fill:#ff0000;stroke:#ff0000;" x="180.505889" xlink:href="#m1f5146d0ce" y="168.012476"/>
     <use style="fill:#ff0000;stroke:#ff0000;" x="197.250361" xlink:href="#m1f5146d0ce" y="224.285107"/>
     <use style="fill:#ff0000;stroke:#ff0000;" x="72.590338" xlink:href="#m1f5146d0ce" y="236.075677"/>
     <use style="fill:#ff0000;stroke:#ff0000;" x="222.027683" xlink:href="#m1f5146d0ce" y="221.26216"/>
     <use style="fill:#ff0000;stroke:#ff0000;" x="200.20914" xlink:href="#m1f5146d0ce" y="224.252379"/>
     <use style="fill:#ff0000;stroke:#ff0000;" x="305.641392" xlink:href="#m1f5146d0ce" y="195.366107"/>
     <use style="fill:#ff0000;stroke:#ff0000;" x="238.634056" xlink:href="#m1f5146d0ce" y="119.611093"/>
     <use style="fill:#ff0000;stroke:#ff0000;" x="195.837842" xlink:href="#m1f5146d0ce" y="286.716141"/>
     <use style="fill:#ff0000;stroke:#ff0000;" x="167.939396" xlink:href="#m1f5146d0ce" y="86.973744"/>
     <use style="fill:#ff0000;stroke:#ff0000;" x="188.943898" xlink:href="#m1f5146d0ce" y="259.951827"/>
     <use style="fill:#ff0000;stroke:#ff0000;" x="255.432071" xlink:href="#m1f5146d0ce" y="229.928756"/>
     <use style="fill:#ff0000;stroke:#ff0000;" x="190.301048" xlink:href="#m1f5146d0ce" y="299.535326"/>
     <use style="fill:#ff0000;stroke:#ff0000;" x="58.7653" xlink:href="#m1f5146d0ce" y="243.462987"/>
     <use style="fill:#ff0000;stroke:#ff0000;" x="191.503668" xlink:href="#m1f5146d0ce" y="139.329257"/>
     <use style="fill:#ff0000;stroke:#ff0000;" x="237.930687" xlink:href="#m1f5146d0ce" y="215.121131"/>
     <use style="fill:#ff0000;stroke:#ff0000;" x="234.049346" xlink:href="#m1f5146d0ce" y="114.412831"/>
     <use style="fill:#ff0000;stroke:#ff0000;" x="163.62187" xlink:href="#m1f5146d0ce" y="213.737919"/>
     <use style="fill:#ff0000;stroke:#ff0000;" x="237.277337" xlink:href="#m1f5146d0ce" y="215.111039"/>
     <use style="fill:#ff0000;stroke:#ff0000;" x="207.779743" xlink:href="#m1f5146d0ce" y="70.148237"/>
     <use style="fill:#ff0000;stroke:#ff0000;" x="181.375148" xlink:href="#m1f5146d0ce" y="170.333684"/>
     <use style="fill:#ff0000;stroke:#ff0000;" x="91.845448" xlink:href="#m1f5146d0ce" y="188.369099"/>
     <use style="fill:#ff0000;stroke:#ff0000;" x="179.51669" xlink:href="#m1f5146d0ce" y="164.227397"/>
     <use style="fill:#ff0000;stroke:#ff0000;" x="253.840719" xlink:href="#m1f5146d0ce" y="122.707305"/>
     <use style="fill:#ff0000;stroke:#ff0000;" x="187.11653" xlink:href="#m1f5146d0ce" y="266.217392"/>
     <use style="fill:#ff0000;stroke:#ff0000;" x="188.861985" xlink:href="#m1f5146d0ce" y="143.031295"/>
     <use style="fill:#ff0000;stroke:#ff0000;" x="179.670049" xlink:href="#m1f5146d0ce" y="165.090366"/>
     <use style="fill:#ff0000;stroke:#ff0000;" x="158.671068" xlink:href="#m1f5146d0ce" y="216.687499"/>
     <use style="fill:#ff0000;stroke:#ff0000;" x="193.326016" xlink:href="#m1f5146d0ce" y="138.750099"/>
     <use style="fill:#ff0000;stroke:#ff0000;" x="168.881977" xlink:href="#m1f5146d0ce" y="195.290543"/>
     <use style="fill:#ff0000;stroke:#ff0000;" x="157.729238" xlink:href="#m1f5146d0ce" y="89.406496"/>
     <use style="fill:#ff0000;stroke:#ff0000;" x="204.213443" xlink:href="#m1f5146d0ce" y="227.165795"/>
     <use style="fill:#ff0000;stroke:#ff0000;" x="272.684843" xlink:href="#m1f5146d0ce" y="153.306333"/>
     <use style="fill:#ff0000;stroke:#ff0000;" x="188.682651" xlink:href="#m1f5146d0ce" y="257.532521"/>
     <use style="fill:#ff0000;stroke:#ff0000;" x="184.711685" xlink:href="#m1f5146d0ce" y="145.481558"/>
     <use style="fill:#ff0000;stroke:#ff0000;" x="91.919676" xlink:href="#m1f5146d0ce" y="189.110171"/>
     <use style="fill:#ff0000;stroke:#ff0000;" x="206.170049" xlink:href="#m1f5146d0ce" y="71.750945"/>
     <use style="fill:#ff0000;stroke:#ff0000;" x="212.095175" xlink:href="#m1f5146d0ce" y="292.601638"/>
     <use style="fill:#ff0000;stroke:#ff0000;" x="67.171545" xlink:href="#m1f5146d0ce" y="244.943493"/>
     <use style="fill:#ff0000;stroke:#ff0000;" x="158.054714" xlink:href="#m1f5146d0ce" y="206.856014"/>
     <use style="fill:#ff0000;stroke:#ff0000;" x="181.161073" xlink:href="#m1f5146d0ce" y="146.931253"/>
     <use style="fill:#ff0000;stroke:#ff0000;" x="190.827946" xlink:href="#m1f5146d0ce" y="138.867146"/>
     <use style="fill:#ff0000;stroke:#ff0000;" x="235.430288" xlink:href="#m1f5146d0ce" y="260.519583"/>
     <use style="fill:#ff0000;stroke:#ff0000;" x="210.384129" xlink:href="#m1f5146d0ce" y="173.377542"/>
     <use style="fill:#ff0000;stroke:#ff0000;" x="178.96908" xlink:href="#m1f5146d0ce" y="162.868223"/>
     <use style="fill:#ff0000;stroke:#ff0000;" x="166.96266" xlink:href="#m1f5146d0ce" y="179.078851"/>
     <use style="fill:#ff0000;stroke:#ff0000;" x="204.797924" xlink:href="#m1f5146d0ce" y="228.504237"/>
     <use style="fill:#ff0000;stroke:#ff0000;" x="181.528298" xlink:href="#m1f5146d0ce" y="170.344357"/>
     <use style="fill:#ff0000;stroke:#ff0000;" x="239.853887" xlink:href="#m1f5146d0ce" y="215.221707"/>
     <use style="fill:#ff0000;stroke:#ff0000;" x="195.463472" xlink:href="#m1f5146d0ce" y="239.897644"/>
     <use style="fill:#ff0000;stroke:#ff0000;" x="193.353908" xlink:href="#m1f5146d0ce" y="302.645455"/>
     <use style="fill:#ff0000;stroke:#ff0000;" x="92.993794" xlink:href="#m1f5146d0ce" y="200.438427"/>
     <use style="fill:#ff0000;stroke:#ff0000;" x="92.102746" xlink:href="#m1f5146d0ce" y="190.229663"/>
     <use style="fill:#ff0000;stroke:#ff0000;" x="187.442008" xlink:href="#m1f5146d0ce" y="292.365922"/>
     <use style="fill:#ff0000;stroke:#ff0000;" x="238.139542" xlink:href="#m1f5146d0ce" y="215.153299"/>
     <use style="fill:#ff0000;stroke:#ff0000;" x="239.352029" xlink:href="#m1f5146d0ce" y="215.196369"/>
     <use style="fill:#ff0000;stroke:#ff0000;" x="208.805327" xlink:href="#m1f5146d0ce" y="69.11877"/>
     <use style="fill:#ff0000;stroke:#ff0000;" x="187.08994" xlink:href="#m1f5146d0ce" y="296.956258"/>
     <use style="fill:#ff0000;stroke:#ff0000;" x="237.336414" xlink:href="#m1f5146d0ce" y="122.224536"/>
     <use style="fill:#ff0000;stroke:#ff0000;" x="152.275457" xlink:href="#m1f5146d0ce" y="80.341228"/>
     <use style="fill:#ff0000;stroke:#ff0000;" x="192.757502" xlink:href="#m1f5146d0ce" y="222.800436"/>
     <use style="fill:#ff0000;stroke:#ff0000;" x="154.124477" xlink:href="#m1f5146d0ce" y="200.873442"/>
     <use style="fill:#ff0000;stroke:#ff0000;" x="215.234044" xlink:href="#m1f5146d0ce" y="110.475011"/>
     <use style="fill:#ff0000;stroke:#ff0000;" x="222.217884" xlink:href="#m1f5146d0ce" y="227.34854"/>
     <use style="fill:#ff0000;stroke:#ff0000;" x="187.329028" xlink:href="#m1f5146d0ce" y="289.25012"/>
     <use style="fill:#ff0000;stroke:#ff0000;" x="188.743399" xlink:href="#m1f5146d0ce" y="141.013371"/>
     <use style="fill:#ff0000;stroke:#ff0000;" x="167.974379" xlink:href="#m1f5146d0ce" y="213.92985"/>
     <use style="fill:#ff0000;stroke:#ff0000;" x="159.328329" xlink:href="#m1f5146d0ce" y="207.879864"/>
     <use style="fill:#ff0000;stroke:#ff0000;" x="254.726337" xlink:href="#m1f5146d0ce" y="228.648294"/>
     <use style="fill:#ff0000;stroke:#ff0000;" x="180.41802" xlink:href="#m1f5146d0ce" y="166.604794"/>
     <use style="fill:#ff0000;stroke:#ff0000;" x="220.845726" xlink:href="#m1f5146d0ce" y="57.754774"/>
     <use style="fill:#ff0000;stroke:#ff0000;" x="93.23547" xlink:href="#m1f5146d0ce" y="202.992021"/>
     <use style="fill:#ff0000;stroke:#ff0000;" x="268.286202" xlink:href="#m1f5146d0ce" y="214.815448"/>
     <use style="fill:#ff0000;stroke:#ff0000;" x="203.012641" xlink:href="#m1f5146d0ce" y="177.564203"/>
     <use style="fill:#ff0000;stroke:#ff0000;" x="179.517477" xlink:href="#m1f5146d0ce" y="164.29086"/>
     <use style="fill:#ff0000;stroke:#ff0000;" x="170.452351" xlink:href="#m1f5146d0ce" y="202.451407"/>
     <use style="fill:#ff0000;stroke:#ff0000;" x="202.361289" xlink:href="#m1f5146d0ce" y="183.712465"/>
     <use style="fill:#ff0000;stroke:#ff0000;" x="161.250634" xlink:href="#m1f5146d0ce" y="172.173613"/>
     <use style="fill:#ff0000;stroke:#ff0000;" x="203.036784" xlink:href="#m1f5146d0ce" y="176.337364"/>
     <use style="fill:#ff0000;stroke:#ff0000;" x="200.673953" xlink:href="#m1f5146d0ce" y="134.053256"/>
     <use style="fill:#ff0000;stroke:#ff0000;" x="151.018965" xlink:href="#m1f5146d0ce" y="208.035288"/>
     <use style="fill:#ff0000;stroke:#ff0000;" x="179.494791" xlink:href="#m1f5146d0ce" y="164.502357"/>
     <use style="fill:#ff0000;stroke:#ff0000;" x="165.922758" xlink:href="#m1f5146d0ce" y="206.758663"/>
     <use style="fill:#ff0000;stroke:#ff0000;" x="209.501728" xlink:href="#m1f5146d0ce" y="174.748052"/>
     <use style="fill:#ff0000;stroke:#ff0000;" x="151.298163" xlink:href="#m1f5146d0ce" y="85.419957"/>
     <use style="fill:#ff0000;stroke:#ff0000;" x="202.229324" xlink:href="#m1f5146d0ce" y="228.530168"/>
     <use style="fill:#ff0000;stroke:#ff0000;" x="292.527282" xlink:href="#m1f5146d0ce" y="190.59411"/>
     <use style="fill:#ff0000;stroke:#ff0000;" x="214.324807" xlink:href="#m1f5146d0ce" y="112.211614"/>
     <use style="fill:#ff0000;stroke:#ff0000;" x="161.740474" xlink:href="#m1f5146d0ce" y="90.327657"/>
     <use style="fill:#ff0000;stroke:#ff0000;" x="202.293235" xlink:href="#m1f5146d0ce" y="150.630769"/>
     <use style="fill:#ff0000;stroke:#ff0000;" x="196.314055" xlink:href="#m1f5146d0ce" y="135.253961"/>
     <use style="fill:#ff0000;stroke:#ff0000;" x="232.644193" xlink:href="#m1f5146d0ce" y="119.367292"/>
     <use style="fill:#ff0000;stroke:#ff0000;" x="186.809524" xlink:href="#m1f5146d0ce" y="291.556707"/>
     <use style="fill:#ff0000;stroke:#ff0000;" x="217.650793" xlink:href="#m1f5146d0ce" y="226.277222"/>
     <use style="fill:#ff0000;stroke:#ff0000;" x="236.506802" xlink:href="#m1f5146d0ce" y="239.140522"/>
     <use style="fill:#ff0000;stroke:#ff0000;" x="276.876244" xlink:href="#m1f5146d0ce" y="155.31559"/>
     <use style="fill:#ff0000;stroke:#ff0000;" x="173.751812" xlink:href="#m1f5146d0ce" y="92.550645"/>
     <use style="fill:#ff0000;stroke:#ff0000;" x="180.429183" xlink:href="#m1f5146d0ce" y="166.761041"/>
     <use style="fill:#ff0000;stroke:#ff0000;" x="237.732127" xlink:href="#m1f5146d0ce" y="215.118224"/>
     <use style="fill:#ff0000;stroke:#ff0000;" x="145.871265" xlink:href="#m1f5146d0ce" y="69.333119"/>
     <use style="fill:#ff0000;stroke:#ff0000;" x="278.118006" xlink:href="#m1f5146d0ce" y="159.346148"/>
     <use style="fill:#ff0000;stroke:#ff0000;" x="91.843288" xlink:href="#m1f5146d0ce" y="188.809853"/>
     <use style="fill:#ff0000;stroke:#ff0000;" x="202.675894" xlink:href="#m1f5146d0ce" y="161.479772"/>
     <use style="fill:#ff0000;stroke:#ff0000;" x="157.503908" xlink:href="#m1f5146d0ce" y="197.663838"/>
     <use style="fill:#ff0000;stroke:#ff0000;" x="181.265649" xlink:href="#m1f5146d0ce" y="169.812161"/>
     <use style="fill:#ff0000;stroke:#ff0000;" x="229.551964" xlink:href="#m1f5146d0ce" y="115.571559"/>
     <use style="fill:#ff0000;stroke:#ff0000;" x="240.459063" xlink:href="#m1f5146d0ce" y="215.251455"/>
     <use style="fill:#ff0000;stroke:#ff0000;" x="157.117122" xlink:href="#m1f5146d0ce" y="81.402849"/>
     <use style="fill:#ff0000;stroke:#ff0000;" x="203.869146" xlink:href="#m1f5146d0ce" y="73.877084"/>
     <use style="fill:#ff0000;stroke:#ff0000;" x="223.150952" xlink:href="#m1f5146d0ce" y="55.554545"/>
     <use style="fill:#ff0000;stroke:#ff0000;" x="219.26083" xlink:href="#m1f5146d0ce" y="112.564778"/>
     <use style="fill:#ff0000;stroke:#ff0000;" x="216.167545" xlink:href="#m1f5146d0ce" y="62.174866"/>
     <use style="fill:#ff0000;stroke:#ff0000;" x="157.476821" xlink:href="#m1f5146d0ce" y="84.222147"/>
     <use style="fill:#ff0000;stroke:#ff0000;" x="203.400817" xlink:href="#m1f5146d0ce" y="163.745431"/>
     <use style="fill:#ff0000;stroke:#ff0000;" x="222.332305" xlink:href="#m1f5146d0ce" y="56.282397"/>
     <use style="fill:#ff0000;stroke:#ff0000;" x="179.408867" xlink:href="#m1f5146d0ce" y="163.987026"/>
     <use style="fill:#ff0000;stroke:#ff0000;" x="157.074606" xlink:href="#m1f5146d0ce" y="81.026167"/>
     <use style="fill:#ff0000;stroke:#ff0000;" x="201.581908" xlink:href="#m1f5146d0ce" y="229.389648"/>
     <use style="fill:#ff0000;stroke:#ff0000;" x="173.433417" xlink:href="#m1f5146d0ce" y="213.085645"/>
     <use style="fill:#ff0000;stroke:#ff0000;" x="92.597058" xlink:href="#m1f5146d0ce" y="196.156168"/>
     <use style="fill:#ff0000;stroke:#ff0000;" x="258.561709" xlink:href="#m1f5146d0ce" y="225.588103"/>
     <use style="fill:#ff0000;stroke:#ff0000;" x="184.879035" xlink:href="#m1f5146d0ce" y="256.817183"/>
     <use style="fill:#ff0000;stroke:#ff0000;" x="200.271594" xlink:href="#m1f5146d0ce" y="232.143408"/>
     <use style="fill:#ff0000;stroke:#ff0000;" x="275.004914" xlink:href="#m1f5146d0ce" y="157.074288"/>
     <use style="fill:#ff0000;stroke:#ff0000;" x="185.916009" xlink:href="#m1f5146d0ce" y="298.166423"/>
     <use style="fill:#ff0000;stroke:#ff0000;" x="160.815733" xlink:href="#m1f5146d0ce" y="87.744379"/>
     <use style="fill:#ff0000;stroke:#ff0000;" x="240.602033" xlink:href="#m1f5146d0ce" y="215.266052"/>
     <use style="fill:#ff0000;stroke:#ff0000;" x="146.357788" xlink:href="#m1f5146d0ce" y="207.142165"/>
     <use style="fill:#ff0000;stroke:#ff0000;" x="220.066817" xlink:href="#m1f5146d0ce" y="222.465201"/>
     <use style="fill:#ff0000;stroke:#ff0000;" x="179.871046" xlink:href="#m1f5146d0ce" y="165.669799"/>
     <use style="fill:#ff0000;stroke:#ff0000;" x="164.511297" xlink:href="#m1f5146d0ce" y="173.393554"/>
     <use style="fill:#ff0000;stroke:#ff0000;" x="165.46033" xlink:href="#m1f5146d0ce" y="212.489796"/>
     <use style="fill:#ff0000;stroke:#ff0000;" x="225.843276" xlink:href="#m1f5146d0ce" y="116.636344"/>
     <use style="fill:#ff0000;stroke:#ff0000;" x="214.133599" xlink:href="#m1f5146d0ce" y="64.18845"/>
    </g>
   </g>
   <g id="patch_3">
    <path d="M 45 315 
L 45 43.2 
" style="fill:none;stroke:#000000;stroke-linecap:square;stroke-linejoin:miter;stroke-width:0.8;"/>
   </g>
   <g id="patch_4">
    <path d="M 324 315 
L 324 43.2 
" style="fill:none;stroke:#000000;stroke-linecap:square;stroke-linejoin:miter;stroke-width:0.8;"/>
   </g>
   <g id="patch_5">
    <path d="M 45 315 
L 324 315 
" style="fill:none;stroke:#000000;stroke-linecap:square;stroke-linejoin:miter;stroke-width:0.8;"/>
   </g>
   <g id="patch_6">
    <path d="M 45 43.2 
L 324 43.2 
" style="fill:none;stroke:#000000;stroke-linecap:square;stroke-linejoin:miter;stroke-width:0.8;"/>
   </g>
  </g>
 </g>
 <defs>
  <clipPath id="pe7cad254b8">
   <rect height="271.8" width="279" x="45" y="43.2"/>
  </clipPath>
 </defs>
</svg>
