<?xml version="1.0" encoding="utf-8" standalone="no"?>
<!DOCTYPE svg PUBLIC "-//W3C//DTD SVG 1.1//EN"
  "http://www.w3.org/Graphics/SVG/1.1/DTD/svg11.dtd">
<!-- Created with matplotlib (http://matplotlib.org/) -->
<svg height="360pt" version="1.1" viewBox="0 0 360 360" width="360pt" xmlns="http://www.w3.org/2000/svg" xmlns:xlink="http://www.w3.org/1999/xlink">
 <defs>
  <style type="text/css">
*{stroke-linecap:butt;stroke-linejoin:round;}
  </style>
 </defs>
 <g id="figure_1">
  <g id="patch_1">
   <path d="M 0 360 
L 360 360 
L 360 0 
L 0 0 
z
" style="fill:#ffffff;"/>
  </g>
  <g id="axes_1">
   <g id="patch_2">
    <path d="M 45 315 
L 324 315 
L 324 43.2 
L 45 43.2 
z
" style="fill:#ffffff;"/>
   </g>
   <g id="matplotlib.axis_1">
    <g id="xtick_1">
     <g id="line2d_1">
      <defs>
       <path d="M 0 0 
L 0 3.5 
" id="mf31dd61580" style="stroke:#000000;stroke-width:0.8;"/>
      </defs>
      <g>
       <use style="stroke:#000000;stroke-width:0.8;" x="45.449418" xlink:href="#mf31dd61580" y="315"/>
      </g>
     </g>
     <g id="text_1">
      <!-- −2.5 -->
      <defs>
       <path d="M 10.59375 35.5 
L 73.1875 35.5 
L 73.1875 27.203125 
L 10.59375 27.203125 
z
" id="DejaVuSans-2212"/>
       <path d="M 19.1875 8.296875 
L 53.609375 8.296875 
L 53.609375 0 
L 7.328125 0 
L 7.328125 8.296875 
Q 12.9375 14.109375 22.625 23.890625 
Q 32.328125 33.6875 34.8125 36.53125 
Q 39.546875 41.84375 41.421875 45.53125 
Q 43.3125 49.21875 43.3125 52.78125 
Q 43.3125 58.59375 39.234375 62.25 
Q 35.15625 65.921875 28.609375 65.921875 
Q 23.96875 65.921875 18.8125 64.3125 
Q 13.671875 62.703125 7.8125 59.421875 
L 7.8125 69.390625 
Q 13.765625 71.78125 18.9375 73 
Q 24.125 74.21875 28.421875 74.21875 
Q 39.75 74.21875 46.484375 68.546875 
Q 53.21875 62.890625 53.21875 53.421875 
Q 53.21875 48.921875 51.53125 44.890625 
Q 49.859375 40.875 45.40625 35.40625 
Q 44.1875 33.984375 37.640625 27.21875 
Q 31.109375 20.453125 19.1875 8.296875 
z
" id="DejaVuSans-32"/>
       <path d="M 10.6875 12.40625 
L 21 12.40625 
L 21 0 
L 10.6875 0 
z
" id="DejaVuSans-2e"/>
       <path d="M 10.796875 72.90625 
L 49.515625 72.90625 
L 49.515625 64.59375 
L 19.828125 64.59375 
L 19.828125 46.734375 
Q 21.96875 47.46875 24.109375 47.828125 
Q 26.265625 48.1875 28.421875 48.1875 
Q 40.625 48.1875 47.75 41.5 
Q 54.890625 34.8125 54.890625 23.390625 
Q 54.890625 11.625 47.5625 5.09375 
Q 40.234375 -1.421875 26.90625 -1.421875 
Q 22.3125 -1.421875 17.546875 -0.640625 
Q 12.796875 0.140625 7.71875 1.703125 
L 7.71875 11.625 
Q 12.109375 9.234375 16.796875 8.0625 
Q 21.484375 6.890625 26.703125 6.890625 
Q 35.15625 6.890625 40.078125 11.328125 
Q 45.015625 15.765625 45.015625 23.390625 
Q 45.015625 31 40.078125 35.4375 
Q 35.15625 39.890625 26.703125 39.890625 
Q 22.75 39.890625 18.8125 39.015625 
Q 14.890625 38.140625 10.796875 36.28125 
z
" id="DejaVuSans-35"/>
      </defs>
      <g transform="translate(33.308012 329.598437)scale(0.1 -0.1)">
       <use xlink:href="#DejaVuSans-2212"/>
       <use x="83.789062" xlink:href="#DejaVuSans-32"/>
       <use x="147.412109" xlink:href="#DejaVuSans-2e"/>
       <use x="179.199219" xlink:href="#DejaVuSans-35"/>
      </g>
     </g>
    </g>
    <g id="xtick_2">
     <g id="line2d_2">
      <g>
       <use style="stroke:#000000;stroke-width:0.8;" x="77.080467" xlink:href="#mf31dd61580" y="315"/>
      </g>
     </g>
     <g id="text_2">
      <!-- −2.0 -->
      <defs>
       <path d="M 31.78125 66.40625 
Q 24.171875 66.40625 20.328125 58.90625 
Q 16.5 51.421875 16.5 36.375 
Q 16.5 21.390625 20.328125 13.890625 
Q 24.171875 6.390625 31.78125 6.390625 
Q 39.453125 6.390625 43.28125 13.890625 
Q 47.125 21.390625 47.125 36.375 
Q 47.125 51.421875 43.28125 58.90625 
Q 39.453125 66.40625 31.78125 66.40625 
z
M 31.78125 74.21875 
Q 44.046875 74.21875 50.515625 64.515625 
Q 56.984375 54.828125 56.984375 36.375 
Q 56.984375 17.96875 50.515625 8.265625 
Q 44.046875 -1.421875 31.78125 -1.421875 
Q 19.53125 -1.421875 13.0625 8.265625 
Q 6.59375 17.96875 6.59375 36.375 
Q 6.59375 54.828125 13.0625 64.515625 
Q 19.53125 74.21875 31.78125 74.21875 
z
" id="DejaVuSans-30"/>
      </defs>
      <g transform="translate(64.93906 329.598437)scale(0.1 -0.1)">
       <use xlink:href="#DejaVuSans-2212"/>
       <use x="83.789062" xlink:href="#DejaVuSans-32"/>
       <use x="147.412109" xlink:href="#DejaVuSans-2e"/>
       <use x="179.199219" xlink:href="#DejaVuSans-30"/>
      </g>
     </g>
    </g>
    <g id="xtick_3">
     <g id="line2d_3">
      <g>
       <use style="stroke:#000000;stroke-width:0.8;" x="108.711515" xlink:href="#mf31dd61580" y="315"/>
      </g>
     </g>
     <g id="text_3">
      <!-- −1.5 -->
      <defs>
       <path d="M 12.40625 8.296875 
L 28.515625 8.296875 
L 28.515625 63.921875 
L 10.984375 60.40625 
L 10.984375 69.390625 
L 28.421875 72.90625 
L 38.28125 72.90625 
L 38.28125 8.296875 
L 54.390625 8.296875 
L 54.390625 0 
L 12.40625 0 
z
" id="DejaVuSans-31"/>
      </defs>
      <g transform="translate(96.570109 329.598437)scale(0.1 -0.1)">
       <use xlink:href="#DejaVuSans-2212"/>
       <use x="83.789062" xlink:href="#DejaVuSans-31"/>
       <use x="147.412109" xlink:href="#DejaVuSans-2e"/>
       <use x="179.199219" xlink:href="#DejaVuSans-35"/>
      </g>
     </g>
    </g>
    <g id="xtick_4">
     <g id="line2d_4">
      <g>
       <use style="stroke:#000000;stroke-width:0.8;" x="140.342563" xlink:href="#mf31dd61580" y="315"/>
      </g>
     </g>
     <g id="text_4">
      <!-- −1.0 -->
      <g transform="translate(128.201157 329.598437)scale(0.1 -0.1)">
       <use xlink:href="#DejaVuSans-2212"/>
       <use x="83.789062" xlink:href="#DejaVuSans-31"/>
       <use x="147.412109" xlink:href="#DejaVuSans-2e"/>
       <use x="179.199219" xlink:href="#DejaVuSans-30"/>
      </g>
     </g>
    </g>
    <g id="xtick_5">
     <g id="line2d_5">
      <g>
       <use style="stroke:#000000;stroke-width:0.8;" x="171.973612" xlink:href="#mf31dd61580" y="315"/>
      </g>
     </g>
     <g id="text_5">
      <!-- −0.5 -->
      <g transform="translate(159.832206 329.598437)scale(0.1 -0.1)">
       <use xlink:href="#DejaVuSans-2212"/>
       <use x="83.789062" xlink:href="#DejaVuSans-30"/>
       <use x="147.412109" xlink:href="#DejaVuSans-2e"/>
       <use x="179.199219" xlink:href="#DejaVuSans-35"/>
      </g>
     </g>
    </g>
    <g id="xtick_6">
     <g id="line2d_6">
      <g>
       <use style="stroke:#000000;stroke-width:0.8;" x="203.60466" xlink:href="#mf31dd61580" y="315"/>
      </g>
     </g>
     <g id="text_6">
      <!-- 0.0 -->
      <g transform="translate(195.653098 329.598437)scale(0.1 -0.1)">
       <use xlink:href="#DejaVuSans-30"/>
       <use x="63.623047" xlink:href="#DejaVuSans-2e"/>
       <use x="95.410156" xlink:href="#DejaVuSans-30"/>
      </g>
     </g>
    </g>
    <g id="xtick_7">
     <g id="line2d_7">
      <g>
       <use style="stroke:#000000;stroke-width:0.8;" x="235.235708" xlink:href="#mf31dd61580" y="315"/>
      </g>
     </g>
     <g id="text_7">
      <!-- 0.5 -->
      <g transform="translate(227.284146 329.598437)scale(0.1 -0.1)">
       <use xlink:href="#DejaVuSans-30"/>
       <use x="63.623047" xlink:href="#DejaVuSans-2e"/>
       <use x="95.410156" xlink:href="#DejaVuSans-35"/>
      </g>
     </g>
    </g>
    <g id="xtick_8">
     <g id="line2d_8">
      <g>
       <use style="stroke:#000000;stroke-width:0.8;" x="266.866757" xlink:href="#mf31dd61580" y="315"/>
      </g>
     </g>
     <g id="text_8">
      <!-- 1.0 -->
      <g transform="translate(258.915194 329.598437)scale(0.1 -0.1)">
       <use xlink:href="#DejaVuSans-31"/>
       <use x="63.623047" xlink:href="#DejaVuSans-2e"/>
       <use x="95.410156" xlink:href="#DejaVuSans-30"/>
      </g>
     </g>
    </g>
    <g id="xtick_9">
     <g id="line2d_9">
      <g>
       <use style="stroke:#000000;stroke-width:0.8;" x="298.497805" xlink:href="#mf31dd61580" y="315"/>
      </g>
     </g>
     <g id="text_9">
      <!-- 1.5 -->
      <g transform="translate(290.546243 329.598437)scale(0.1 -0.1)">
       <use xlink:href="#DejaVuSans-31"/>
       <use x="63.623047" xlink:href="#DejaVuSans-2e"/>
       <use x="95.410156" xlink:href="#DejaVuSans-35"/>
      </g>
     </g>
    </g>
    <g id="text_10">
     <!-- $y_1$ -->
     <defs>
      <path d="M 24.8125 -5.078125 
Q 18.5625 -15.578125 14.625 -18.1875 
Q 10.6875 -20.796875 4.59375 -20.796875 
L -2.484375 -20.796875 
L -0.984375 -13.28125 
L 4.203125 -13.28125 
Q 7.953125 -13.28125 10.59375 -11.234375 
Q 13.234375 -9.1875 16.5 -3.21875 
L 19.28125 2 
L 7.171875 54.6875 
L 16.703125 54.6875 
L 25.78125 12.796875 
L 50.875 54.6875 
L 60.296875 54.6875 
z
" id="DejaVuSans-Oblique-79"/>
     </defs>
     <g transform="translate(173.8 350.834375)scale(0.2 -0.2)">
      <use transform="translate(0 0.3125)" xlink:href="#DejaVuSans-Oblique-79"/>
      <use transform="translate(59.179688 -16.09375)scale(0.7)" xlink:href="#DejaVuSans-31"/>
     </g>
    </g>
   </g>
   <g id="matplotlib.axis_2">
    <g id="ytick_1">
     <g id="line2d_10">
      <defs>
       <path d="M 0 0 
L -3.5 0 
" id="m65be53e1fe" style="stroke:#000000;stroke-width:0.8;"/>
      </defs>
      <g>
       <use style="stroke:#000000;stroke-width:0.8;" x="45" xlink:href="#m65be53e1fe" y="288.956476"/>
      </g>
     </g>
     <g id="text_11">
      <!-- −2 -->
      <g transform="translate(23.257812 292.755695)scale(0.1 -0.1)">
       <use xlink:href="#DejaVuSans-2212"/>
       <use x="83.789062" xlink:href="#DejaVuSans-32"/>
      </g>
     </g>
    </g>
    <g id="ytick_2">
     <g id="line2d_11">
      <g>
       <use style="stroke:#000000;stroke-width:0.8;" x="45" xlink:href="#m65be53e1fe" y="229.983883"/>
      </g>
     </g>
     <g id="text_12">
      <!-- −1 -->
      <g transform="translate(23.257812 233.783102)scale(0.1 -0.1)">
       <use xlink:href="#DejaVuSans-2212"/>
       <use x="83.789062" xlink:href="#DejaVuSans-31"/>
      </g>
     </g>
    </g>
    <g id="ytick_3">
     <g id="line2d_12">
      <g>
       <use style="stroke:#000000;stroke-width:0.8;" x="45" xlink:href="#m65be53e1fe" y="171.011291"/>
      </g>
     </g>
     <g id="text_13">
      <!-- 0 -->
      <g transform="translate(31.6375 174.810509)scale(0.1 -0.1)">
       <use xlink:href="#DejaVuSans-30"/>
      </g>
     </g>
    </g>
    <g id="ytick_4">
     <g id="line2d_13">
      <g>
       <use style="stroke:#000000;stroke-width:0.8;" x="45" xlink:href="#m65be53e1fe" y="112.038698"/>
      </g>
     </g>
     <g id="text_14">
      <!-- 1 -->
      <g transform="translate(31.6375 115.837916)scale(0.1 -0.1)">
       <use xlink:href="#DejaVuSans-31"/>
      </g>
     </g>
    </g>
    <g id="ytick_5">
     <g id="line2d_14">
      <g>
       <use style="stroke:#000000;stroke-width:0.8;" x="45" xlink:href="#m65be53e1fe" y="53.066105"/>
      </g>
     </g>
     <g id="text_15">
      <!-- 2 -->
      <g transform="translate(31.6375 56.865324)scale(0.1 -0.1)">
       <use xlink:href="#DejaVuSans-32"/>
      </g>
     </g>
    </g>
    <g id="text_16">
     <!-- $y_2$ -->
     <g transform="translate(15.057813 189.8)rotate(-90)scale(0.2 -0.2)">
      <use transform="translate(0 0.3125)" xlink:href="#DejaVuSans-Oblique-79"/>
      <use transform="translate(59.179688 -16.09375)scale(0.7)" xlink:href="#DejaVuSans-32"/>
     </g>
    </g>
   </g>
   <g id="line2d_15">
    <defs>
     <path d="M -3 3 
L 3 -3 
M -3 -3 
L 3 3 
" id="m7a55a66268" style="stroke:#ff0000;"/>
    </defs>
    <g clip-path="url(#p2b76366dc1)">
     <use style="fill:#ff0000;stroke:#ff0000;" x="247.488125" xlink:href="#m7a55a66268" y="120.280681"/>
     <use style="fill:#ff0000;stroke:#ff0000;" x="208.309335" xlink:href="#m7a55a66268" y="177.375234"/>
     <use style="fill:#ff0000;stroke:#ff0000;" x="199.450487" xlink:href="#m7a55a66268" y="284.375493"/>
     <use style="fill:#ff0000;stroke:#ff0000;" x="251.863647" xlink:href="#m7a55a66268" y="232.534236"/>
     <use style="fill:#ff0000;stroke:#ff0000;" x="176.853017" xlink:href="#m7a55a66268" y="155.940874"/>
     <use style="fill:#ff0000;stroke:#ff0000;" x="229.119407" xlink:href="#m7a55a66268" y="114.140415"/>
     <use style="fill:#ff0000;stroke:#ff0000;" x="212.740676" xlink:href="#m7a55a66268" y="171.291318"/>
     <use style="fill:#ff0000;stroke:#ff0000;" x="179.338724" xlink:href="#m7a55a66268" y="163.483021"/>
     <use style="fill:#ff0000;stroke:#ff0000;" x="230.45092" xlink:href="#m7a55a66268" y="216.00876"/>
     <use style="fill:#ff0000;stroke:#ff0000;" x="205.455284" xlink:href="#m7a55a66268" y="72.397289"/>
     <use style="fill:#ff0000;stroke:#ff0000;" x="169.261339" xlink:href="#m7a55a66268" y="105.596566"/>
     <use style="fill:#ff0000;stroke:#ff0000;" x="294.306785" xlink:href="#m7a55a66268" y="187.662889"/>
     <use style="fill:#ff0000;stroke:#ff0000;" x="63.72879" xlink:href="#m7a55a66268" y="236.514032"/>
     <use style="fill:#ff0000;stroke:#ff0000;" x="186.671157" xlink:href="#m7a55a66268" y="263.912022"/>
     <use style="fill:#ff0000;stroke:#ff0000;" x="199.86236" xlink:href="#m7a55a66268" y="230.992639"/>
     <use style="fill:#ff0000;stroke:#ff0000;" x="70.795378" xlink:href="#m7a55a66268" y="246.100162"/>
     <use style="fill:#ff0000;stroke:#ff0000;" x="238.887548" xlink:href="#m7a55a66268" y="215.179307"/>
     <use style="fill:#ff0000;stroke:#ff0000;" x="304.936846" xlink:href="#m7a55a66268" y="197.770353"/>
     <use style="fill:#ff0000;stroke:#ff0000;" x="274.518662" xlink:href="#m7a55a66268" y="160.512824"/>
     <use style="fill:#ff0000;stroke:#ff0000;" x="67.830844" xlink:href="#m7a55a66268" y="238.088699"/>
     <use style="fill:#ff0000;stroke:#ff0000;" x="188.242937" xlink:href="#m7a55a66268" y="136.513961"/>
     <use style="fill:#ff0000;stroke:#ff0000;" x="203.023351" xlink:href="#m7a55a66268" y="182.712564"/>
     <use style="fill:#ff0000;stroke:#ff0000;" x="213.614099" xlink:href="#m7a55a66268" y="64.582236"/>
     <use style="fill:#ff0000;stroke:#ff0000;" x="238.331338" xlink:href="#m7a55a66268" y="215.136551"/>
     <use style="fill:#ff0000;stroke:#ff0000;" x="180.765386" xlink:href="#m7a55a66268" y="168.454038"/>
     <use style="fill:#ff0000;stroke:#ff0000;" x="162.451948" xlink:href="#m7a55a66268" y="92.382618"/>
     <use style="fill:#ff0000;stroke:#ff0000;" x="139.060182" xlink:href="#m7a55a66268" y="196.198377"/>
     <use style="fill:#ff0000;stroke:#ff0000;" x="279.366935" xlink:href="#m7a55a66268" y="197.224133"/>
     <use style="fill:#ff0000;stroke:#ff0000;" x="172.158416" xlink:href="#m7a55a66268" y="92.520413"/>
     <use style="fill:#ff0000;stroke:#ff0000;" x="163.889368" xlink:href="#m7a55a66268" y="174.202273"/>
     <use style="fill:#ff0000;stroke:#ff0000;" x="91.707488" xlink:href="#m7a55a66268" y="186.384674"/>
     <use style="fill:#ff0000;stroke:#ff0000;" x="161.434119" xlink:href="#m7a55a66268" y="174.156149"/>
     <use style="fill:#ff0000;stroke:#ff0000;" x="311.318182" xlink:href="#m7a55a66268" y="196.844994"/>
     <use style="fill:#ff0000;stroke:#ff0000;" x="163.349097" xlink:href="#m7a55a66268" y="93.737965"/>
     <use style="fill:#ff0000;stroke:#ff0000;" x="223.191313" xlink:href="#m7a55a66268" y="228.390974"/>
     <use style="fill:#ff0000;stroke:#ff0000;" x="182.411085" xlink:href="#m7a55a66268" y="173.477533"/>
     <use style="fill:#ff0000;stroke:#ff0000;" x="163.970841" xlink:href="#m7a55a66268" y="172.088767"/>
     <use style="fill:#ff0000;stroke:#ff0000;" x="273.676714" xlink:href="#m7a55a66268" y="155.042843"/>
     <use style="fill:#ff0000;stroke:#ff0000;" x="57.681818" xlink:href="#m7a55a66268" y="234.338754"/>
     <use style="fill:#ff0000;stroke:#ff0000;" x="306.980982" xlink:href="#m7a55a66268" y="195.466308"/>
     <use style="fill:#ff0000;stroke:#ff0000;" x="238.512622" xlink:href="#m7a55a66268" y="215.153634"/>
     <use style="fill:#ff0000;stroke:#ff0000;" x="158.63998" xlink:href="#m7a55a66268" y="201.571103"/>
     <use style="fill:#ff0000;stroke:#ff0000;" x="228.72957" xlink:href="#m7a55a66268" y="221.046142"/>
     <use style="fill:#ff0000;stroke:#ff0000;" x="190.176223" xlink:href="#m7a55a66268" y="261.875897"/>
     <use style="fill:#ff0000;stroke:#ff0000;" x="179.666059" xlink:href="#m7a55a66268" y="147.915525"/>
     <use style="fill:#ff0000;stroke:#ff0000;" x="271.427495" xlink:href="#m7a55a66268" y="152.197662"/>
     <use style="fill:#ff0000;stroke:#ff0000;" x="92.498906" xlink:href="#m7a55a66268" y="195.488876"/>
     <use style="fill:#ff0000;stroke:#ff0000;" x="212.906934" xlink:href="#m7a55a66268" y="169.375173"/>
     <use style="fill:#ff0000;stroke:#ff0000;" x="255.642457" xlink:href="#m7a55a66268" y="227.592172"/>
     <use style="fill:#ff0000;stroke:#ff0000;" x="233.63444" xlink:href="#m7a55a66268" y="117.12984"/>
     <use style="fill:#ff0000;stroke:#ff0000;" x="214.402734" xlink:href="#m7a55a66268" y="63.84449"/>
     <use style="fill:#ff0000;stroke:#ff0000;" x="160.269995" xlink:href="#m7a55a66268" y="80.123568"/>
     <use style="fill:#ff0000;stroke:#ff0000;" x="190.227839" xlink:href="#m7a55a66268" y="259.959454"/>
     <use style="fill:#ff0000;stroke:#ff0000;" x="185.140474" xlink:href="#m7a55a66268" y="143.855788"/>
     <use style="fill:#ff0000;stroke:#ff0000;" x="68.619205" xlink:href="#m7a55a66268" y="243.11433"/>
     <use style="fill:#ff0000;stroke:#ff0000;" x="275.293377" xlink:href="#m7a55a66268" y="146.497419"/>
     <use style="fill:#ff0000;stroke:#ff0000;" x="239.987066" xlink:href="#m7a55a66268" y="215.223993"/>
     <use style="fill:#ff0000;stroke:#ff0000;" x="151.503218" xlink:href="#m7a55a66268" y="208.000465"/>
     <use style="fill:#ff0000;stroke:#ff0000;" x="153.718876" xlink:href="#m7a55a66268" y="217.162625"/>
     <use style="fill:#ff0000;stroke:#ff0000;" x="92.10475" xlink:href="#m7a55a66268" y="192.529596"/>
     <use style="fill:#ff0000;stroke:#ff0000;" x="69.752248" xlink:href="#m7a55a66268" y="241.325242"/>
     <use style="fill:#ff0000;stroke:#ff0000;" x="160.810352" xlink:href="#m7a55a66268" y="198.745731"/>
     <use style="fill:#ff0000;stroke:#ff0000;" x="192.051644" xlink:href="#m7a55a66268" y="264.775505"/>
     <use style="fill:#ff0000;stroke:#ff0000;" x="198.01779" xlink:href="#m7a55a66268" y="285.090124"/>
     <use style="fill:#ff0000;stroke:#ff0000;" x="276.444662" xlink:href="#m7a55a66268" y="154.270462"/>
     <use style="fill:#ff0000;stroke:#ff0000;" x="152.47045" xlink:href="#m7a55a66268" y="155.867599"/>
     <use style="fill:#ff0000;stroke:#ff0000;" x="159.364958" xlink:href="#m7a55a66268" y="165.664681"/>
     <use style="fill:#ff0000;stroke:#ff0000;" x="180.505889" xlink:href="#m7a55a66268" y="168.012476"/>
     <use style="fill:#ff0000;stroke:#ff0000;" x="197.250361" xlink:href="#m7a55a66268" y="224.285107"/>
     <use style="fill:#ff0000;stroke:#ff0000;" x="72.590338" xlink:href="#m7a55a66268" y="236.075677"/>
     <use style="fill:#ff0000;stroke:#ff0000;" x="222.027683" xlink:href="#m7a55a66268" y="221.26216"/>
     <use style="fill:#ff0000;stroke:#ff0000;" x="200.20914" xlink:href="#m7a55a66268" y="224.252379"/>
     <use style="fill:#ff0000;stroke:#ff0000;" x="305.641392" xlink:href="#m7a55a66268" y="195.366107"/>
     <use style="fill:#ff0000;stroke:#ff0000;" x="238.634056" xlink:href="#m7a55a66268" y="119.611093"/>
     <use style="fill:#ff0000;stroke:#ff0000;" x="195.837842" xlink:href="#m7a55a66268" y="286.716141"/>
     <use style="fill:#ff0000;stroke:#ff0000;" x="167.939396" xlink:href="#m7a55a66268" y="86.973744"/>
     <use style="fill:#ff0000;stroke:#ff0000;" x="188.943898" xlink:href="#m7a55a66268" y="259.951827"/>
     <use style="fill:#ff0000;stroke:#ff0000;" x="255.432071" xlink:href="#m7a55a66268" y="229.928756"/>
     <use style="fill:#ff0000;stroke:#ff0000;" x="190.301048" xlink:href="#m7a55a66268" y="299.535326"/>
     <use style="fill:#ff0000;stroke:#ff0000;" x="58.7653" xlink:href="#m7a55a66268" y="243.462987"/>
     <use style="fill:#ff0000;stroke:#ff0000;" x="191.503668" xlink:href="#m7a55a66268" y="139.329257"/>
     <use style="fill:#ff0000;stroke:#ff0000;" x="237.930687" xlink:href="#m7a55a66268" y="215.121131"/>
     <use style="fill:#ff0000;stroke:#ff0000;" x="234.049346" xlink:href="#m7a55a66268" y="114.412831"/>
     <use style="fill:#ff0000;stroke:#ff0000;" x="163.62187" xlink:href="#m7a55a66268" y="213.737919"/>
     <use style="fill:#ff0000;stroke:#ff0000;" x="237.277337" xlink:href="#m7a55a66268" y="215.111039"/>
     <use style="fill:#ff0000;stroke:#ff0000;" x="207.779743" xlink:href="#m7a55a66268" y="70.148237"/>
     <use style="fill:#ff0000;stroke:#ff0000;" x="181.375148" xlink:href="#m7a55a66268" y="170.333684"/>
     <use style="fill:#ff0000;stroke:#ff0000;" x="91.845448" xlink:href="#m7a55a66268" y="188.369099"/>
     <use style="fill:#ff0000;stroke:#ff0000;" x="179.51669" xlink:href="#m7a55a66268" y="164.227397"/>
     <use style="fill:#ff0000;stroke:#ff0000;" x="253.840719" xlink:href="#m7a55a66268" y="122.707305"/>
     <use style="fill:#ff0000;stroke:#ff0000;" x="187.11653" xlink:href="#m7a55a66268" y="266.217392"/>
     <use style="fill:#ff0000;stroke:#ff0000;" x="188.861985" xlink:href="#m7a55a66268" y="143.031295"/>
     <use style="fill:#ff0000;stroke:#ff0000;" x="179.670049" xlink:href="#m7a55a66268" y="165.090366"/>
     <use style="fill:#ff0000;stroke:#ff0000;" x="158.671068" xlink:href="#m7a55a66268" y="216.687499"/>
     <use style="fill:#ff0000;stroke:#ff0000;" x="193.326016" xlink:href="#m7a55a66268" y="138.750099"/>
     <use style="fill:#ff0000;stroke:#ff0000;" x="168.881977" xlink:href="#m7a55a66268" y="195.290543"/>
     <use style="fill:#ff0000;stroke:#ff0000;" x="157.729238" xlink:href="#m7a55a66268" y="89.406496"/>
     <use style="fill:#ff0000;stroke:#ff0000;" x="204.213443" xlink:href="#m7a55a66268" y="227.165795"/>
     <use style="fill:#ff0000;stroke:#ff0000;" x="272.684843" xlink:href="#m7a55a66268" y="153.306333"/>
     <use style="fill:#ff0000;stroke:#ff0000;" x="188.682651" xlink:href="#m7a55a66268" y="257.532521"/>
     <use style="fill:#ff0000;stroke:#ff0000;" x="184.711685" xlink:href="#m7a55a66268" y="145.481558"/>
     <use style="fill:#ff0000;stroke:#ff0000;" x="91.919676" xlink:href="#m7a55a66268" y="189.110171"/>
     <use style="fill:#ff0000;stroke:#ff0000;" x="206.170049" xlink:href="#m7a55a66268" y="71.750945"/>
     <use style="fill:#ff0000;stroke:#ff0000;" x="212.095175" xlink:href="#m7a55a66268" y="292.601638"/>
     <use style="fill:#ff0000;stroke:#ff0000;" x="67.171545" xlink:href="#m7a55a66268" y="244.943493"/>
     <use style="fill:#ff0000;stroke:#ff0000;" x="158.054714" xlink:href="#m7a55a66268" y="206.856014"/>
     <use style="fill:#ff0000;stroke:#ff0000;" x="181.161073" xlink:href="#m7a55a66268" y="146.931253"/>
     <use style="fill:#ff0000;stroke:#ff0000;" x="190.827946" xlink:href="#m7a55a66268" y="138.867146"/>
     <use style="fill:#ff0000;stroke:#ff0000;" x="235.430288" xlink:href="#m7a55a66268" y="260.519583"/>
     <use style="fill:#ff0000;stroke:#ff0000;" x="210.384129" xlink:href="#m7a55a66268" y="173.377542"/>
     <use style="fill:#ff0000;stroke:#ff0000;" x="178.96908" xlink:href="#m7a55a66268" y="162.868223"/>
     <use style="fill:#ff0000;stroke:#ff0000;" x="166.96266" xlink:href="#m7a55a66268" y="179.078851"/>
     <use style="fill:#ff0000;stroke:#ff0000;" x="204.797924" xlink:href="#m7a55a66268" y="228.504237"/>
     <use style="fill:#ff0000;stroke:#ff0000;" x="181.528298" xlink:href="#m7a55a66268" y="170.344357"/>
     <use style="fill:#ff0000;stroke:#ff0000;" x="239.853887" xlink:href="#m7a55a66268" y="215.221707"/>
     <use style="fill:#ff0000;stroke:#ff0000;" x="195.463472" xlink:href="#m7a55a66268" y="239.897644"/>
     <use style="fill:#ff0000;stroke:#ff0000;" x="193.353908" xlink:href="#m7a55a66268" y="302.645455"/>
     <use style="fill:#ff0000;stroke:#ff0000;" x="92.993794" xlink:href="#m7a55a66268" y="200.438427"/>
     <use style="fill:#ff0000;stroke:#ff0000;" x="92.102746" xlink:href="#m7a55a66268" y="190.229663"/>
     <use style="fill:#ff0000;stroke:#ff0000;" x="187.442008" xlink:href="#m7a55a66268" y="292.365922"/>
     <use style="fill:#ff0000;stroke:#ff0000;" x="238.139542" xlink:href="#m7a55a66268" y="215.153299"/>
     <use style="fill:#ff0000;stroke:#ff0000;" x="239.352029" xlink:href="#m7a55a66268" y="215.196369"/>
     <use style="fill:#ff0000;stroke:#ff0000;" x="208.805327" xlink:href="#m7a55a66268" y="69.11877"/>
     <use style="fill:#ff0000;stroke:#ff0000;" x="187.08994" xlink:href="#m7a55a66268" y="296.956258"/>
     <use style="fill:#ff0000;stroke:#ff0000;" x="237.336414" xlink:href="#m7a55a66268" y="122.224536"/>
     <use style="fill:#ff0000;stroke:#ff0000;" x="152.275457" xlink:href="#m7a55a66268" y="80.341228"/>
     <use style="fill:#ff0000;stroke:#ff0000;" x="192.757502" xlink:href="#m7a55a66268" y="222.800436"/>
     <use style="fill:#ff0000;stroke:#ff0000;" x="154.124477" xlink:href="#m7a55a66268" y="200.873442"/>
     <use style="fill:#ff0000;stroke:#ff0000;" x="215.234044" xlink:href="#m7a55a66268" y="110.475011"/>
     <use style="fill:#ff0000;stroke:#ff0000;" x="222.217884" xlink:href="#m7a55a66268" y="227.34854"/>
     <use style="fill:#ff0000;stroke:#ff0000;" x="187.329028" xlink:href="#m7a55a66268" y="289.25012"/>
     <use style="fill:#ff0000;stroke:#ff0000;" x="188.743399" xlink:href="#m7a55a66268" y="141.013371"/>
     <use style="fill:#ff0000;stroke:#ff0000;" x="167.974379" xlink:href="#m7a55a66268" y="213.92985"/>
     <use style="fill:#ff0000;stroke:#ff0000;" x="159.328329" xlink:href="#m7a55a66268" y="207.879864"/>
     <use style="fill:#ff0000;stroke:#ff0000;" x="254.726337" xlink:href="#m7a55a66268" y="228.648294"/>
     <use style="fill:#ff0000;stroke:#ff0000;" x="180.41802" xlink:href="#m7a55a66268" y="166.604794"/>
     <use style="fill:#ff0000;stroke:#ff0000;" x="220.845726" xlink:href="#m7a55a66268" y="57.754774"/>
     <use style="fill:#ff0000;stroke:#ff0000;" x="93.23547" xlink:href="#m7a55a66268" y="202.992021"/>
     <use style="fill:#ff0000;stroke:#ff0000;" x="268.286202" xlink:href="#m7a55a66268" y="214.815448"/>
     <use style="fill:#ff0000;stroke:#ff0000;" x="203.012641" xlink:href="#m7a55a66268" y="177.564203"/>
     <use style="fill:#ff0000;stroke:#ff0000;" x="179.517477" xlink:href="#m7a55a66268" y="164.29086"/>
     <use style="fill:#ff0000;stroke:#ff0000;" x="170.452351" xlink:href="#m7a55a66268" y="202.451407"/>
     <use style="fill:#ff0000;stroke:#ff0000;" x="202.361289" xlink:href="#m7a55a66268" y="183.712465"/>
     <use style="fill:#ff0000;stroke:#ff0000;" x="161.250634" xlink:href="#m7a55a66268" y="172.173613"/>
     <use style="fill:#ff0000;stroke:#ff0000;" x="203.036784" xlink:href="#m7a55a66268" y="176.337364"/>
     <use style="fill:#ff0000;stroke:#ff0000;" x="200.673953" xlink:href="#m7a55a66268" y="134.053256"/>
     <use style="fill:#ff0000;stroke:#ff0000;" x="151.018965" xlink:href="#m7a55a66268" y="208.035288"/>
     <use style="fill:#ff0000;stroke:#ff0000;" x="179.494791" xlink:href="#m7a55a66268" y="164.502357"/>
     <use style="fill:#ff0000;stroke:#ff0000;" x="165.922758" xlink:href="#m7a55a66268" y="206.758663"/>
     <use style="fill:#ff0000;stroke:#ff0000;" x="209.501728" xlink:href="#m7a55a66268" y="174.748052"/>
     <use style="fill:#ff0000;stroke:#ff0000;" x="151.298163" xlink:href="#m7a55a66268" y="85.419957"/>
     <use style="fill:#ff0000;stroke:#ff0000;" x="202.229324" xlink:href="#m7a55a66268" y="228.530168"/>
     <use style="fill:#ff0000;stroke:#ff0000;" x="292.527282" xlink:href="#m7a55a66268" y="190.59411"/>
     <use style="fill:#ff0000;stroke:#ff0000;" x="214.324807" xlink:href="#m7a55a66268" y="112.211614"/>
     <use style="fill:#ff0000;stroke:#ff0000;" x="161.740474" xlink:href="#m7a55a66268" y="90.327657"/>
     <use style="fill:#ff0000;stroke:#ff0000;" x="202.293235" xlink:href="#m7a55a66268" y="150.630769"/>
     <use style="fill:#ff0000;stroke:#ff0000;" x="196.314055" xlink:href="#m7a55a66268" y="135.253961"/>
     <use style="fill:#ff0000;stroke:#ff0000;" x="232.644193" xlink:href="#m7a55a66268" y="119.367292"/>
     <use style="fill:#ff0000;stroke:#ff0000;" x="186.809524" xlink:href="#m7a55a66268" y="291.556707"/>
     <use style="fill:#ff0000;stroke:#ff0000;" x="217.650793" xlink:href="#m7a55a66268" y="226.277222"/>
     <use style="fill:#ff0000;stroke:#ff0000;" x="236.506802" xlink:href="#m7a55a66268" y="239.140522"/>
     <use style="fill:#ff0000;stroke:#ff0000;" x="276.876244" xlink:href="#m7a55a66268" y="155.31559"/>
     <use style="fill:#ff0000;stroke:#ff0000;" x="173.751812" xlink:href="#m7a55a66268" y="92.550645"/>
     <use style="fill:#ff0000;stroke:#ff0000;" x="180.429183" xlink:href="#m7a55a66268" y="166.761041"/>
     <use style="fill:#ff0000;stroke:#ff0000;" x="237.732127" xlink:href="#m7a55a66268" y="215.118224"/>
     <use style="fill:#ff0000;stroke:#ff0000;" x="145.871265" xlink:href="#m7a55a66268" y="69.333119"/>
     <use style="fill:#ff0000;stroke:#ff0000;" x="278.118006" xlink:href="#m7a55a66268" y="159.346148"/>
     <use style="fill:#ff0000;stroke:#ff0000;" x="91.843288" xlink:href="#m7a55a66268" y="188.809853"/>
     <use style="fill:#ff0000;stroke:#ff0000;" x="202.675894" xlink:href="#m7a55a66268" y="161.479772"/>
     <use style="fill:#ff0000;stroke:#ff0000;" x="157.503908" xlink:href="#m7a55a66268" y="197.663838"/>
     <use style="fill:#ff0000;stroke:#ff0000;" x="181.265649" xlink:href="#m7a55a66268" y="169.812161"/>
     <use style="fill:#ff0000;stroke:#ff0000;" x="229.551964" xlink:href="#m7a55a66268" y="115.571559"/>
     <use style="fill:#ff0000;stroke:#ff0000;" x="240.459063" xlink:href="#m7a55a66268" y="215.251455"/>
     <use style="fill:#ff0000;stroke:#ff0000;" x="157.117122" xlink:href="#m7a55a66268" y="81.402849"/>
     <use style="fill:#ff0000;stroke:#ff0000;" x="203.869146" xlink:href="#m7a55a66268" y="73.877084"/>
     <use style="fill:#ff0000;stroke:#ff0000;" x="223.150952" xlink:href="#m7a55a66268" y="55.554545"/>
     <use style="fill:#ff0000;stroke:#ff0000;" x="219.26083" xlink:href="#m7a55a66268" y="112.564778"/>
     <use style="fill:#ff0000;stroke:#ff0000;" x="216.167545" xlink:href="#m7a55a66268" y="62.174866"/>
     <use style="fill:#ff0000;stroke:#ff0000;" x="157.476821" xlink:href="#m7a55a66268" y="84.222147"/>
     <use style="fill:#ff0000;stroke:#ff0000;" x="203.400817" xlink:href="#m7a55a66268" y="163.745431"/>
     <use style="fill:#ff0000;stroke:#ff0000;" x="222.332305" xlink:href="#m7a55a66268" y="56.282397"/>
     <use style="fill:#ff0000;stroke:#ff0000;" x="179.408867" xlink:href="#m7a55a66268" y="163.987026"/>
     <use style="fill:#ff0000;stroke:#ff0000;" x="157.074606" xlink:href="#m7a55a66268" y="81.026167"/>
     <use style="fill:#ff0000;stroke:#ff0000;" x="201.581908" xlink:href="#m7a55a66268" y="229.389648"/>
     <use style="fill:#ff0000;stroke:#ff0000;" x="173.433417" xlink:href="#m7a55a66268" y="213.085645"/>
     <use style="fill:#ff0000;stroke:#ff0000;" x="92.597058" xlink:href="#m7a55a66268" y="196.156168"/>
     <use style="fill:#ff0000;stroke:#ff0000;" x="258.561709" xlink:href="#m7a55a66268" y="225.588103"/>
     <use style="fill:#ff0000;stroke:#ff0000;" x="184.879035" xlink:href="#m7a55a66268" y="256.817183"/>
     <use style="fill:#ff0000;stroke:#ff0000;" x="200.271594" xlink:href="#m7a55a66268" y="232.143408"/>
     <use style="fill:#ff0000;stroke:#ff0000;" x="275.004914" xlink:href="#m7a55a66268" y="157.074288"/>
     <use style="fill:#ff0000;stroke:#ff0000;" x="185.916009" xlink:href="#m7a55a66268" y="298.166423"/>
     <use style="fill:#ff0000;stroke:#ff0000;" x="160.815733" xlink:href="#m7a55a66268" y="87.744379"/>
     <use style="fill:#ff0000;stroke:#ff0000;" x="240.602033" xlink:href="#m7a55a66268" y="215.266052"/>
     <use style="fill:#ff0000;stroke:#ff0000;" x="146.357788" xlink:href="#m7a55a66268" y="207.142165"/>
     <use style="fill:#ff0000;stroke:#ff0000;" x="220.066817" xlink:href="#m7a55a66268" y="222.465201"/>
     <use style="fill:#ff0000;stroke:#ff0000;" x="179.871046" xlink:href="#m7a55a66268" y="165.669799"/>
     <use style="fill:#ff0000;stroke:#ff0000;" x="164.511297" xlink:href="#m7a55a66268" y="173.393554"/>
     <use style="fill:#ff0000;stroke:#ff0000;" x="165.46033" xlink:href="#m7a55a66268" y="212.489796"/>
     <use style="fill:#ff0000;stroke:#ff0000;" x="225.843276" xlink:href="#m7a55a66268" y="116.636344"/>
     <use style="fill:#ff0000;stroke:#ff0000;" x="214.133599" xlink:href="#m7a55a66268" y="64.18845"/>
    </g>
   </g>
   <g id="line2d_16">
    <defs>
     <path d="M 0 2.5 
C 0.663008 2.5 1.29895 2.236584 1.767767 1.767767 
C 2.236584 1.29895 2.5 0.663008 2.5 0 
C 2.5 -0.663008 2.236584 -1.29895 1.767767 -1.767767 
C 1.29895 -2.236584 0.663008 -2.5 0 -2.5 
C -0.663008 -2.5 -1.29895 -2.236584 -1.767767 -1.767767 
C -2.236584 -1.29895 -2.5 -0.663008 -2.5 0 
C -2.5 0.663008 -2.236584 1.29895 -1.767767 1.767767 
C -1.29895 2.236584 -0.663008 2.5 0 2.5 
z
" id="mf12afe888a" style="stroke:#000000;"/>
    </defs>
    <g clip-path="url(#p2b76366dc1)">
     <use style="stroke:#000000;" x="238.319663" xlink:href="#mf12afe888a" y="215.14736"/>
    </g>
   </g>
   <g id="line2d_17">
    <path clip-path="url(#p2b76366dc1)" d="M 238.319663 215.154576 
L 236.853919 215.076283 
L 239.785406 215.218324 
L 238.319663 215.154576 
" style="fill:none;stroke:#000000;stroke-linecap:square;stroke-width:2;"/>
   </g>
   <g id="line2d_18">
    <g clip-path="url(#p2b76366dc1)">
     <use style="stroke:#000000;" x="208.515025" xlink:href="#mf12afe888a" y="175.764555"/>
    </g>
   </g>
   <g id="line2d_19">
    <path clip-path="url(#p2b76366dc1)" d="M 208.515025 176.399642 
L 204.941369 180.663329 
L 203.400953 182.229449 
L 203.316957 182.234118 
L 203.328614 182.159526 
L 203.640079 181.596983 
L 205.12418 179.493566 
L 208.432944 175.231469 
L 212.028614 170.933534 
L 213.61364 169.309009 
L 213.710502 169.288189 
L 213.694963 169.387616 
L 213.298894 170.073162 
L 211.715454 172.291055 
L 208.515025 176.399642 
L 208.515025 176.399642 
" style="fill:none;stroke:#000000;stroke-linecap:square;stroke-width:2;"/>
   </g>
   <g id="line2d_20">
    <g clip-path="url(#p2b76366dc1)">
     <use style="stroke:#000000;" x="189.414323" xlink:href="#mf12afe888a" y="262.073645"/>
    </g>
   </g>
   <g id="line2d_21">
    <path clip-path="url(#p2b76366dc1)" d="M 189.414323 264.583137 
L 188.766501 264.235162 
L 188.182726 263.673488 
L 187.683099 262.875603 
L 187.39021 261.981949 
L 187.339036 261.099246 
L 187.507982 260.395207 
L 187.865399 259.857107 
L 188.319344 259.559094 
L 188.861115 259.462766 
L 189.447257 259.57585 
L 190.09337 259.93552 
L 190.672349 260.506576 
L 191.16371 261.311014 
L 191.446163 262.206523 
L 191.485978 263.086164 
L 191.307047 263.783448 
L 190.940991 264.311693 
L 190.481132 264.598985 
L 189.935707 264.683727 
L 189.414323 264.583137 
L 189.414323 264.583137 
" style="fill:none;stroke:#000000;stroke-linecap:square;stroke-width:2;"/>
   </g>
   <g id="line2d_22">
    <g clip-path="url(#p2b76366dc1)">
     <use style="stroke:#000000;" x="180.12866" xlink:href="#mf12afe888a" y="166.282857"/>
    </g>
   </g>
   <g id="line2d_23">
    <path clip-path="url(#p2b76366dc1)" d="M 180.12866 166.550544 
L 178.583824 161.431251 
L 178.696828 161.694959 
L 179.861529 165.182088 
L 181.672341 171.135063 
L 181.649292 171.096382 
L 181.19126 169.807159 
L 180.12866 166.550544 
L 180.12866 166.550544 
" style="fill:none;stroke:#000000;stroke-linecap:square;stroke-width:2;"/>
   </g>
   <g id="line2d_24">
    <g clip-path="url(#p2b76366dc1)">
     <use style="stroke:#000000;" x="161.727188" xlink:href="#mf12afe888a" y="198.520464"/>
    </g>
   </g>
   <g id="line2d_25">
    <path clip-path="url(#p2b76366dc1)" d="M 161.727188 202.571444 
L 158.905549 202.604845 
L 156.221181 202.439542 
L 153.80468 202.083577 
L 151.773607 201.554267 
L 150.41497 200.98192 
L 149.590332 200.436716 
L 149.067548 199.843853 
L 148.875655 199.345127 
L 148.888477 198.833264 
L 149.105812 198.316418 
L 149.659493 197.675894 
L 150.513309 197.056374 
L 151.903671 196.362313 
L 153.645531 195.745473 
L 156.038209 195.152681 
L 158.707655 194.723731 
L 161.524001 194.479491 
L 164.350231 194.431843 
L 167.048851 194.583106 
L 169.488573 194.925921 
L 171.550706 195.44361 
L 172.941067 196.007644 
L 173.794883 196.547313 
L 174.348565 197.136057 
L 174.565899 197.632577 
L 174.578722 198.143241 
L 174.386829 198.659914 
L 173.864045 199.301668 
L 173.039406 199.923993 
L 171.680769 200.6234 
L 169.96598 201.247562 
L 167.597721 201.85104 
L 164.943862 202.292487 
L 162.133513 202.550425 
L 161.727188 202.571444 
L 161.727188 202.571444 
" style="fill:none;stroke:#000000;stroke-linecap:square;stroke-width:2;"/>
   </g>
   <g id="line2d_26">
    <g clip-path="url(#p2b76366dc1)">
     <use style="stroke:#000000;" x="202.874661" xlink:href="#mf12afe888a" y="171.69073"/>
    </g>
   </g>
   <g id="line2d_27">
    <path clip-path="url(#p2b76366dc1)" d="M 202.874661 178.466826 
L 202.582992 173.485915 
L 202.404124 166.771859 
L 202.48567 163.093052 
L 202.565639 162.797701 
L 202.613348 162.861898 
L 202.73465 163.515365 
L 202.971229 166.230602 
L 203.254916 172.269444 
L 203.340728 178.579145 
L 203.200344 180.571295 
L 203.16633 180.576281 
L 203.129701 180.501604 
L 202.993084 179.691213 
L 202.874661 178.466826 
L 202.874661 178.466826 
" style="fill:none;stroke:#000000;stroke-linecap:square;stroke-width:2;"/>
   </g>
   <g id="line2d_28">
    <g clip-path="url(#p2b76366dc1)">
     <use style="stroke:#000000;" x="192.783061" xlink:href="#mf12afe888a" y="288.823619"/>
    </g>
   </g>
   <g id="line2d_29">
    <path clip-path="url(#p2b76366dc1)" d="M 192.783061 293.742416 
L 191.249477 295.050316 
L 189.98422 295.872812 
L 188.855127 296.352366 
L 188.037582 296.472295 
L 187.484938 296.363063 
L 187.064062 296.066317 
L 186.785423 295.589439 
L 186.655951 294.944289 
L 186.701752 293.970854 
L 187.029655 292.605228 
L 187.63746 291.055628 
L 188.636327 289.156361 
L 189.89836 287.235976 
L 191.343466 285.416349 
L 192.879933 283.812959 
L 194.410253 282.527563 
L 195.667763 281.728424 
L 196.784932 281.274464 
L 197.589367 281.177313 
L 198.129402 281.305497 
L 198.536468 281.620664 
L 198.800442 282.114974 
L 198.914758 282.776135 
L 198.850653 283.766348 
L 198.50206 285.147444 
L 197.87524 286.707385 
L 196.857872 288.611556 
L 195.581902 290.529186 
L 194.128309 292.338574 
L 192.783061 293.742416 
L 192.783061 293.742416 
" style="fill:none;stroke:#000000;stroke-linecap:square;stroke-width:2;"/>
   </g>
   <g id="line2d_30">
    <g clip-path="url(#p2b76366dc1)">
     <use style="stroke:#000000;" x="211.361296" xlink:href="#mf12afe888a" y="222.702527"/>
    </g>
   </g>
   <g id="line2d_31">
    <path clip-path="url(#p2b76366dc1)" d="M 211.361296 228.300812 
L 209.067589 227.941586 
L 206.855953 227.394899 
L 204.805524 226.680312 
L 202.98967 225.823395 
L 201.473365 224.854809 
L 200.478109 223.987263 
L 199.753529 223.087764 
L 199.317644 222.178684 
L 199.184331 221.459722 
L 199.244988 220.760557 
L 199.49865 220.092326 
L 199.941274 219.465673 
L 200.749266 218.755959 
L 201.821188 218.144399 
L 203.130382 217.646204 
L 204.968397 217.21524 
L 207.03516 216.980618 
L 209.256717 216.950735 
L 211.553579 217.126658 
L 213.843561 217.502093 
L 216.044724 218.063607 
L 218.078307 218.791108 
L 219.871547 219.658565 
L 221.360279 220.634939 
L 222.329474 221.506668 
L 223.02588 222.40814 
L 223.432178 223.316934 
L 223.541297 224.034043 
L 223.456398 224.729942 
L 223.178833 225.393546 
L 222.713023 226.014284 
L 221.877621 226.71494 
L 220.780669 227.315804 
L 219.449448 227.801932 
L 217.589729 228.217029 
L 215.507148 228.43481 
L 213.276223 228.447482 
L 211.361296 228.300812 
L 211.361296 228.300812 
" style="fill:none;stroke:#000000;stroke-linecap:square;stroke-width:2;"/>
   </g>
   <g id="line2d_32">
    <g clip-path="url(#p2b76366dc1)">
     <use style="stroke:#000000;" x="228.651939" xlink:href="#mf12afe888a" y="116.423299"/>
    </g>
   </g>
   <g id="line2d_33">
    <path clip-path="url(#p2b76366dc1)" d="M 228.651939 119.026466 
L 225.001481 118.055688 
L 221.643817 116.95398 
L 218.848256 115.809708 
L 217.01781 114.831091 
L 216.01899 114.055706 
L 215.680161 113.570385 
L 215.641249 113.232693 
L 215.809588 112.945825 
L 216.307062 112.665589 
L 217.307676 112.453122 
L 218.984752 112.385042 
L 221.471453 112.547555 
L 224.80463 113.023259 
L 228.446389 113.771672 
L 232.104635 114.732765 
L 235.485949 115.829451 
L 238.319126 116.973768 
L 240.192314 117.956684 
L 241.233517 118.738908 
L 241.604275 119.230688 
L 241.652897 119.652645 
L 241.458772 119.932821 
L 240.92991 120.203987 
L 239.893892 120.404838 
L 238.18022 120.458881 
L 235.66006 120.280526 
L 232.302396 119.788451 
L 228.651939 119.026466 
L 228.651939 119.026466 
" style="fill:none;stroke:#000000;stroke-linecap:square;stroke-width:2;"/>
   </g>
   <g id="line2d_34">
    <g clip-path="url(#p2b76366dc1)">
     <use style="stroke:#000000;" x="161.346932" xlink:href="#mf12afe888a" y="211.472052"/>
    </g>
   </g>
   <g id="line2d_35">
    <path clip-path="url(#p2b76366dc1)" d="M 161.346932 217.581324 
L 160.15176 217.250118 
L 158.999354 216.712165 
L 157.930947 215.986714 
L 156.984769 215.099721 
L 156.194675 214.082926 
L 155.588935 212.972711 
L 155.189225 211.808799 
L 155.009845 210.632839 
L 155.057216 209.486906 
L 155.32964 208.412005 
L 155.817372 207.446596 
L 156.502959 206.625224 
L 157.36187 205.977278 
L 158.363371 205.525942 
L 159.471629 205.287366 
L 160.646987 205.270087 
L 161.847391 205.474723 
L 163.029887 205.893951 
L 164.152165 206.512771 
L 165.174068 207.309041 
L 166.059031 208.254269 
L 166.775388 209.314633 
L 167.297508 210.452194 
L 167.606708 211.626246 
L 167.691925 212.794781 
L 167.550109 213.915986 
L 167.186335 214.949745 
L 166.61362 215.859067 
L 165.852455 216.611415 
L 164.930076 217.179871 
L 163.879488 217.544092 
L 162.738281 217.691048 
L 161.54729 217.61548 
L 161.346932 217.581324 
L 161.346932 217.581324 
" style="fill:none;stroke:#000000;stroke-linecap:square;stroke-width:2;"/>
   </g>
   <g id="line2d_36">
    <g clip-path="url(#p2b76366dc1)">
     <use style="stroke:#000000;" x="161.987978" xlink:href="#mf12afe888a" y="91.794258"/>
    </g>
   </g>
   <g id="line2d_37">
    <path clip-path="url(#p2b76366dc1)" d="M 161.987978 99.414677 
L 160.739612 98.080981 
L 159.342702 96.244511 
L 158.074485 94.191537 
L 156.996658 92.021935 
L 156.161658 89.841257 
L 155.610108 87.755592 
L 155.383696 86.120646 
L 155.393594 84.688709 
L 155.639448 83.511018 
L 156.018472 82.754537 
L 156.545963 82.222881 
L 157.208802 81.929274 
L 157.990503 81.881018 
L 158.871625 82.079313 
L 159.830253 82.519227 
L 161.049245 83.350249 
L 162.301826 84.483409 
L 163.745838 86.132669 
L 165.104331 88.057365 
L 166.311213 90.163859 
L 167.307771 92.349672 
L 168.045522 94.508464 
L 168.488575 96.535211 
L 168.617027 98.092308 
L 168.508282 99.424052 
L 168.239024 100.327032 
L 167.814297 101.017795 
L 167.244664 101.47916 
L 166.544292 101.699653 
L 165.730601 101.67379 
L 164.823828 101.402214 
L 163.846524 100.89168 
L 162.614971 99.981892 
L 161.987978 99.414677 
L 161.987978 99.414677 
" style="fill:none;stroke:#000000;stroke-linecap:square;stroke-width:2;"/>
   </g>
   <g id="line2d_38">
    <g clip-path="url(#p2b76366dc1)">
     <use style="stroke:#000000;" x="160.484995" xlink:href="#mf12afe888a" y="171.024551"/>
    </g>
   </g>
   <g id="line2d_39">
    <path clip-path="url(#p2b76366dc1)" d="M 160.484995 175.266021 
L 159.028315 173.176763 
L 157.551625 170.660739 
L 156.364942 168.180683 
L 155.642641 166.182507 
L 155.325536 164.728046 
L 155.31649 163.780629 
L 155.509184 163.247757 
L 155.806253 163.015748 
L 156.219686 162.982924 
L 156.854741 163.207261 
L 157.757949 163.821387 
L 158.949763 164.949809 
L 160.402972 166.675546 
L 161.86276 168.750106 
L 163.350299 171.261322 
L 164.554559 173.74913 
L 165.297009 175.764414 
L 165.634122 177.241019 
L 165.661258 178.212036 
L 165.483802 178.767369 
L 165.198825 179.019061 
L 164.796612 179.071922 
L 164.173478 178.871399 
L 163.281518 178.283659 
L 162.098396 177.181992 
L 160.64902 175.480008 
L 160.484995 175.266021 
L 160.484995 175.266021 
" style="fill:none;stroke:#000000;stroke-linecap:square;stroke-width:2;"/>
   </g>
   <g id="line2d_40">
    <g clip-path="url(#p2b76366dc1)">
     <use style="stroke:#000000;" x="184.650334" xlink:href="#mf12afe888a" y="143.884431"/>
    </g>
   </g>
   <g id="line2d_41">
    <path clip-path="url(#p2b76366dc1)" d="M 184.650334 146.426416 
L 181.115122 148.566331 
L 177.929419 150.24337 
L 175.622659 151.218685 
L 174.3216 151.572927 
L 173.604597 151.579017 
L 173.308339 151.373487 
L 173.274316 151.074554 
L 173.486404 150.540557 
L 174.106465 149.682707 
L 175.304382 148.422243 
L 177.22574 146.715483 
L 179.943187 144.586508 
L 183.394769 142.162591 
L 186.970482 139.908903 
L 190.316814 138.048256 
L 192.857947 136.862872 
L 194.569296 136.280022 
L 195.553107 136.165395 
L 195.93287 136.313835 
L 196.034863 136.56849 
L 195.907419 137.050036 
L 195.385693 137.850906 
L 194.293604 139.05566 
L 192.475212 140.71621 
L 189.84297 142.818871 
L 186.440197 145.247756 
L 184.650334 146.426416 
L 184.650334 146.426416 
" style="fill:none;stroke:#000000;stroke-linecap:square;stroke-width:2;"/>
   </g>
   <g id="line2d_42">
    <g clip-path="url(#p2b76366dc1)">
     <use style="stroke:#000000;" x="198.749266" xlink:href="#mf12afe888a" y="233.699548"/>
    </g>
   </g>
   <g id="line2d_43">
    <path clip-path="url(#p2b76366dc1)" d="M 198.749266 234.877578 
L 196.411011 238.167272 
L 195.048635 239.760519 
L 194.636546 239.986688 
L 194.617995 239.791646 
L 194.866094 239.094689 
L 195.763411 237.346622 
L 197.651019 234.205427 
L 200.097334 230.570478 
L 201.993207 228.117866 
L 202.751265 227.413678 
L 202.880537 227.440214 
L 202.887758 227.466556 
L 202.822915 227.822667 
L 202.325152 228.948437 
L 200.978437 231.360071 
L 198.749266 234.877578 
L 198.749266 234.877578 
" style="fill:none;stroke:#000000;stroke-linecap:square;stroke-width:2;"/>
   </g>
   <g id="line2d_44">
    <g clip-path="url(#p2b76366dc1)">
     <use style="stroke:#000000;" x="274.943497" xlink:href="#mf12afe888a" y="156.278772"/>
    </g>
   </g>
   <g id="line2d_45">
    <path clip-path="url(#p2b76366dc1)" d="M 274.943497 160.338578 
L 274.442325 160.115614 
L 273.972959 159.64915 
L 273.519889 158.870726 
L 273.151682 157.765296 
L 272.960622 156.5129 
L 272.977031 155.113434 
L 273.196325 153.957795 
L 273.588353 153.03162 
L 274.057129 152.470556 
L 274.534815 152.227397 
L 274.975154 152.225418 
L 275.475259 152.464182 
L 275.941617 152.945034 
L 276.389223 153.736825 
L 276.749305 154.852367 
L 276.930855 156.10893 
L 276.903511 157.505644 
L 276.674911 158.652377 
L 276.275135 159.564444 
L 275.801357 160.109506 
L 275.321134 160.336881 
L 274.943497 160.338578 
L 274.943497 160.338578 
" style="fill:none;stroke:#000000;stroke-linecap:square;stroke-width:2;"/>
   </g>
   <g id="line2d_46">
    <g clip-path="url(#p2b76366dc1)">
     <use style="stroke:#000000;" x="303.377331" xlink:href="#mf12afe888a" y="195.368916"/>
    </g>
   </g>
   <g id="line2d_47">
    <path clip-path="url(#p2b76366dc1)" d="M 303.377331 197.480829 
L 300.998701 196.511296 
L 298.904122 195.405342 
L 297.45804 194.392604 
L 296.653994 193.560967 
L 296.399657 193.011349 
L 296.451816 192.630666 
L 296.751779 192.347962 
L 297.288813 192.173351 
L 298.188907 192.114366 
L 299.709486 192.270695 
L 301.737891 192.734614 
L 303.92838 193.458973 
L 306.266701 194.470503 
L 308.099715 195.486663 
L 309.46585 196.491182 
L 310.129923 197.219384 
L 310.360229 197.761637 
L 310.287225 198.13463 
L 309.966976 198.408662 
L 309.41094 198.573927 
L 308.491204 198.621607 
L 306.950816 198.450952 
L 304.909326 197.972684 
L 303.377331 197.480829 
L 303.377331 197.480829 
" style="fill:none;stroke:#000000;stroke-linecap:square;stroke-width:2;"/>
   </g>
   <g id="line2d_48">
    <g clip-path="url(#p2b76366dc1)">
     <use style="stroke:#000000;" x="255.854082" xlink:href="#mf12afe888a" y="229.574739"/>
    </g>
   </g>
   <g id="line2d_49">
    <path clip-path="url(#p2b76366dc1)" d="M 255.854082 232.859467 
L 251.644526 238.78246 
L 248.241573 243.229237 
L 245.814215 246.08706 
L 244.327928 247.520304 
L 243.766355 247.840539 
L 243.533131 247.769643 
L 243.486926 247.526033 
L 243.656064 246.764101 
L 244.258583 245.287888 
L 245.701458 242.457085 
L 248.088652 238.306255 
L 251.461471 232.889387 
L 255.658845 226.574222 
L 259.879535 220.617371 
L 263.311773 216.113694 
L 265.778691 213.188106 
L 267.30802 211.685973 
L 267.981599 211.301867 
L 268.190429 211.409149 
L 268.20275 211.805796 
L 267.94181 212.698467 
L 267.074315 214.646371 
L 265.418191 217.754657 
L 262.836323 222.136357 
L 259.321387 227.687572 
L 255.854082 232.859467 
L 255.854082 232.859467 
" style="fill:none;stroke:#000000;stroke-linecap:square;stroke-width:2;"/>
   </g>
   <g id="line2d_50">
    <g clip-path="url(#p2b76366dc1)">
     <use style="stroke:#000000;" x="208.520906" xlink:href="#mf12afe888a" y="69.432653"/>
    </g>
   </g>
   <g id="line2d_51">
    <path clip-path="url(#p2b76366dc1)" d="M 208.520906 69.490515 
L 201.227164 76.357166 
L 215.814649 62.507227 
L 208.520906 69.490515 
" style="fill:none;stroke:#000000;stroke-linecap:square;stroke-width:2;"/>
   </g>
   <g id="line2d_52">
    <g clip-path="url(#p2b76366dc1)">
     <use style="stroke:#000000;" x="92.177697" xlink:href="#mf12afe888a" y="192.358156"/>
    </g>
   </g>
   <g id="line2d_53">
    <path clip-path="url(#p2b76366dc1)" d="M 92.177697 193.342077 
L 91.447733 185.83028 
L 91.457716 185.764867 
L 91.541704 186.194436 
L 92.074328 190.460844 
L 92.897679 198.626742 
L 92.89949 198.952288 
L 92.770295 198.225849 
L 92.177697 193.342077 
L 92.177697 193.342077 
" style="fill:none;stroke:#000000;stroke-linecap:square;stroke-width:2;"/>
   </g>
   <g id="line2d_54">
    <g clip-path="url(#p2b76366dc1)">
     <use style="stroke:#000000;" x="65.615642" xlink:href="#mf12afe888a" y="237.682464"/>
    </g>
   </g>
   <g id="line2d_55">
    <path clip-path="url(#p2b76366dc1)" d="M 65.615642 241.187934 
L 64.491148 241.001067 
L 63.438019 240.60359 
L 62.523089 240.020728 
L 61.804423 239.289472 
L 61.372807 238.564199 
L 61.147605 237.79603 
L 61.139771 237.022336 
L 61.349687 236.280757 
L 61.767142 235.607371 
L 62.371825 235.034938 
L 63.134319 234.591306 
L 64.151108 234.269372 
L 65.260842 234.164044 
L 66.393092 234.282007 
L 67.476003 234.615775 
L 68.440849 235.144165 
L 69.226397 235.833644 
L 69.782795 236.640456 
L 70.053506 237.402535 
L 70.108315 238.178232 
L 69.944556 238.929811 
L 69.570197 239.620706 
L 69.003449 240.217307 
L 68.271885 240.690587 
L 67.279955 241.051259 
L 66.182402 241.198135 
L 65.615642 241.187934 
L 65.615642 241.187934 
" style="fill:none;stroke:#000000;stroke-linecap:square;stroke-width:2;"/>
   </g>
   <g id="patch_3">
    <path d="M 45 315 
L 45 43.2 
" style="fill:none;stroke:#000000;stroke-linecap:square;stroke-linejoin:miter;stroke-width:0.8;"/>
   </g>
   <g id="patch_4">
    <path d="M 324 315 
L 324 43.2 
" style="fill:none;stroke:#000000;stroke-linecap:square;stroke-linejoin:miter;stroke-width:0.8;"/>
   </g>
   <g id="patch_5">
    <path d="M 45 315 
L 324 315 
" style="fill:none;stroke:#000000;stroke-linecap:square;stroke-linejoin:miter;stroke-width:0.8;"/>
   </g>
   <g id="patch_6">
    <path d="M 45 43.2 
L 324 43.2 
" style="fill:none;stroke:#000000;stroke-linecap:square;stroke-linejoin:miter;stroke-width:0.8;"/>
   </g>
  </g>
 </g>
 <defs>
  <clipPath id="p2b76366dc1">
   <rect height="271.8" width="279" x="45" y="43.2"/>
  </clipPath>
 </defs>
</svg>
