<?xml version="1.0" encoding="utf-8" standalone="no"?>
<!DOCTYPE svg PUBLIC "-//W3C//DTD SVG 1.1//EN"
  "http://www.w3.org/Graphics/SVG/1.1/DTD/svg11.dtd">
<!-- Created with matplotlib (http://matplotlib.org/) -->
<svg height="360pt" version="1.1" viewBox="0 0 360 360" width="360pt" xmlns="http://www.w3.org/2000/svg" xmlns:xlink="http://www.w3.org/1999/xlink">
 <defs>
  <style type="text/css">
*{stroke-linecap:butt;stroke-linejoin:round;}
  </style>
 </defs>
 <g id="figure_1">
  <g id="patch_1">
   <path d="M 0 360 
L 360 360 
L 360 0 
L 0 0 
z
" style="fill:#ffffff;"/>
  </g>
  <g id="axes_1">
   <g id="patch_2">
    <path d="M 45 315 
L 324 315 
L 324 43.2 
L 45 43.2 
z
" style="fill:#ffffff;"/>
   </g>
   <g id="matplotlib.axis_1">
    <g id="xtick_1">
     <g id="line2d_1">
      <defs>
       <path d="M 0 0 
L 0 3.5 
" id="m5c2ad16065" style="stroke:#000000;stroke-width:0.8;"/>
      </defs>
      <g>
       <use style="stroke:#000000;stroke-width:0.8;" x="49.633267" xlink:href="#m5c2ad16065" y="315"/>
      </g>
     </g>
     <g id="text_1">
      <!-- −4 -->
      <defs>
       <path d="M 10.59375 35.5 
L 73.1875 35.5 
L 73.1875 27.203125 
L 10.59375 27.203125 
z
" id="DejaVuSans-2212"/>
       <path d="M 37.796875 64.3125 
L 12.890625 25.390625 
L 37.796875 25.390625 
z
M 35.203125 72.90625 
L 47.609375 72.90625 
L 47.609375 25.390625 
L 58.015625 25.390625 
L 58.015625 17.1875 
L 47.609375 17.1875 
L 47.609375 0 
L 37.796875 0 
L 37.796875 17.1875 
L 4.890625 17.1875 
L 4.890625 26.703125 
z
" id="DejaVuSans-34"/>
      </defs>
      <g transform="translate(42.262173 329.598437)scale(0.1 -0.1)">
       <use xlink:href="#DejaVuSans-2212"/>
       <use x="83.789062" xlink:href="#DejaVuSans-34"/>
      </g>
     </g>
    </g>
    <g id="xtick_2">
     <g id="line2d_2">
      <g>
       <use style="stroke:#000000;stroke-width:0.8;" x="109.644503" xlink:href="#m5c2ad16065" y="315"/>
      </g>
     </g>
     <g id="text_2">
      <!-- −2 -->
      <defs>
       <path d="M 19.1875 8.296875 
L 53.609375 8.296875 
L 53.609375 0 
L 7.328125 0 
L 7.328125 8.296875 
Q 12.9375 14.109375 22.625 23.890625 
Q 32.328125 33.6875 34.8125 36.53125 
Q 39.546875 41.84375 41.421875 45.53125 
Q 43.3125 49.21875 43.3125 52.78125 
Q 43.3125 58.59375 39.234375 62.25 
Q 35.15625 65.921875 28.609375 65.921875 
Q 23.96875 65.921875 18.8125 64.3125 
Q 13.671875 62.703125 7.8125 59.421875 
L 7.8125 69.390625 
Q 13.765625 71.78125 18.9375 73 
Q 24.125 74.21875 28.421875 74.21875 
Q 39.75 74.21875 46.484375 68.546875 
Q 53.21875 62.890625 53.21875 53.421875 
Q 53.21875 48.921875 51.53125 44.890625 
Q 49.859375 40.875 45.40625 35.40625 
Q 44.1875 33.984375 37.640625 27.21875 
Q 31.109375 20.453125 19.1875 8.296875 
z
" id="DejaVuSans-32"/>
      </defs>
      <g transform="translate(102.273409 329.598437)scale(0.1 -0.1)">
       <use xlink:href="#DejaVuSans-2212"/>
       <use x="83.789062" xlink:href="#DejaVuSans-32"/>
      </g>
     </g>
    </g>
    <g id="xtick_3">
     <g id="line2d_3">
      <g>
       <use style="stroke:#000000;stroke-width:0.8;" x="169.655738" xlink:href="#m5c2ad16065" y="315"/>
      </g>
     </g>
     <g id="text_3">
      <!-- 0 -->
      <defs>
       <path d="M 31.78125 66.40625 
Q 24.171875 66.40625 20.328125 58.90625 
Q 16.5 51.421875 16.5 36.375 
Q 16.5 21.390625 20.328125 13.890625 
Q 24.171875 6.390625 31.78125 6.390625 
Q 39.453125 6.390625 43.28125 13.890625 
Q 47.125 21.390625 47.125 36.375 
Q 47.125 51.421875 43.28125 58.90625 
Q 39.453125 66.40625 31.78125 66.40625 
z
M 31.78125 74.21875 
Q 44.046875 74.21875 50.515625 64.515625 
Q 56.984375 54.828125 56.984375 36.375 
Q 56.984375 17.96875 50.515625 8.265625 
Q 44.046875 -1.421875 31.78125 -1.421875 
Q 19.53125 -1.421875 13.0625 8.265625 
Q 6.59375 17.96875 6.59375 36.375 
Q 6.59375 54.828125 13.0625 64.515625 
Q 19.53125 74.21875 31.78125 74.21875 
z
" id="DejaVuSans-30"/>
      </defs>
      <g transform="translate(166.474488 329.598437)scale(0.1 -0.1)">
       <use xlink:href="#DejaVuSans-30"/>
      </g>
     </g>
    </g>
    <g id="xtick_4">
     <g id="line2d_4">
      <g>
       <use style="stroke:#000000;stroke-width:0.8;" x="229.666974" xlink:href="#m5c2ad16065" y="315"/>
      </g>
     </g>
     <g id="text_4">
      <!-- 2 -->
      <g transform="translate(226.485724 329.598437)scale(0.1 -0.1)">
       <use xlink:href="#DejaVuSans-32"/>
      </g>
     </g>
    </g>
    <g id="xtick_5">
     <g id="line2d_5">
      <g>
       <use style="stroke:#000000;stroke-width:0.8;" x="289.67821" xlink:href="#m5c2ad16065" y="315"/>
      </g>
     </g>
     <g id="text_5">
      <!-- 4 -->
      <g transform="translate(286.49696 329.598437)scale(0.1 -0.1)">
       <use xlink:href="#DejaVuSans-34"/>
      </g>
     </g>
    </g>
    <g id="text_6">
     <!-- $y_1$ -->
     <defs>
      <path d="M 24.8125 -5.078125 
Q 18.5625 -15.578125 14.625 -18.1875 
Q 10.6875 -20.796875 4.59375 -20.796875 
L -2.484375 -20.796875 
L -0.984375 -13.28125 
L 4.203125 -13.28125 
Q 7.953125 -13.28125 10.59375 -11.234375 
Q 13.234375 -9.1875 16.5 -3.21875 
L 19.28125 2 
L 7.171875 54.6875 
L 16.703125 54.6875 
L 25.78125 12.796875 
L 50.875 54.6875 
L 60.296875 54.6875 
z
" id="DejaVuSans-Oblique-79"/>
      <path d="M 12.40625 8.296875 
L 28.515625 8.296875 
L 28.515625 63.921875 
L 10.984375 60.40625 
L 10.984375 69.390625 
L 28.421875 72.90625 
L 38.28125 72.90625 
L 38.28125 8.296875 
L 54.390625 8.296875 
L 54.390625 0 
L 12.40625 0 
z
" id="DejaVuSans-31"/>
     </defs>
     <g transform="translate(173.8 350.834375)scale(0.2 -0.2)">
      <use transform="translate(0 0.3125)" xlink:href="#DejaVuSans-Oblique-79"/>
      <use transform="translate(59.179688 -16.09375)scale(0.7)" xlink:href="#DejaVuSans-31"/>
     </g>
    </g>
   </g>
   <g id="matplotlib.axis_2">
    <g id="ytick_1">
     <g id="line2d_6">
      <defs>
       <path d="M 0 0 
L -3.5 0 
" id="mb786a69849" style="stroke:#000000;stroke-width:0.8;"/>
      </defs>
      <g>
       <use style="stroke:#000000;stroke-width:0.8;" x="45" xlink:href="#mb786a69849" y="297.976681"/>
      </g>
     </g>
     <g id="text_7">
      <!-- −4 -->
      <g transform="translate(23.257812 301.775899)scale(0.1 -0.1)">
       <use xlink:href="#DejaVuSans-2212"/>
       <use x="83.789062" xlink:href="#DejaVuSans-34"/>
      </g>
     </g>
    </g>
    <g id="ytick_2">
     <g id="line2d_7">
      <g>
       <use style="stroke:#000000;stroke-width:0.8;" x="45" xlink:href="#mb786a69849" y="242.961014"/>
      </g>
     </g>
     <g id="text_8">
      <!-- −2 -->
      <g transform="translate(23.257812 246.760233)scale(0.1 -0.1)">
       <use xlink:href="#DejaVuSans-2212"/>
       <use x="83.789062" xlink:href="#DejaVuSans-32"/>
      </g>
     </g>
    </g>
    <g id="ytick_3">
     <g id="line2d_8">
      <g>
       <use style="stroke:#000000;stroke-width:0.8;" x="45" xlink:href="#mb786a69849" y="187.945347"/>
      </g>
     </g>
     <g id="text_9">
      <!-- 0 -->
      <g transform="translate(31.6375 191.744566)scale(0.1 -0.1)">
       <use xlink:href="#DejaVuSans-30"/>
      </g>
     </g>
    </g>
    <g id="ytick_4">
     <g id="line2d_9">
      <g>
       <use style="stroke:#000000;stroke-width:0.8;" x="45" xlink:href="#mb786a69849" y="132.92968"/>
      </g>
     </g>
     <g id="text_10">
      <!-- 2 -->
      <g transform="translate(31.6375 136.728899)scale(0.1 -0.1)">
       <use xlink:href="#DejaVuSans-32"/>
      </g>
     </g>
    </g>
    <g id="ytick_5">
     <g id="line2d_10">
      <g>
       <use style="stroke:#000000;stroke-width:0.8;" x="45" xlink:href="#mb786a69849" y="77.914013"/>
      </g>
     </g>
     <g id="text_11">
      <!-- 4 -->
      <g transform="translate(31.6375 81.713232)scale(0.1 -0.1)">
       <use xlink:href="#DejaVuSans-34"/>
      </g>
     </g>
    </g>
    <g id="text_12">
     <!-- $y_2$ -->
     <g transform="translate(15.057813 189.8)rotate(-90)scale(0.2 -0.2)">
      <use transform="translate(0 0.3125)" xlink:href="#DejaVuSans-Oblique-79"/>
      <use transform="translate(59.179688 -16.09375)scale(0.7)" xlink:href="#DejaVuSans-32"/>
     </g>
    </g>
   </g>
   <g id="line2d_11">
    <defs>
     <path d="M -5 5 
L 5 -5 
M -5 -5 
L 5 5 
" id="m6e19b43718" style="stroke:#ff0000;"/>
    </defs>
    <g clip-path="url(#p74b45bc58d)">
     <use style="fill:#ff0000;stroke:#ff0000;" x="259.967163" xlink:href="#m6e19b43718" y="122.437357"/>
     <use style="fill:#ff0000;stroke:#ff0000;" x="274.981276" xlink:href="#m6e19b43718" y="93.823569"/>
     <use style="fill:#ff0000;stroke:#ff0000;" x="225.312456" xlink:href="#m6e19b43718" y="71.85929"/>
     <use style="fill:#ff0000;stroke:#ff0000;" x="241.025899" xlink:href="#m6e19b43718" y="159.269471"/>
     <use style="fill:#ff0000;stroke:#ff0000;" x="247.658358" xlink:href="#m6e19b43718" y="116.942344"/>
     <use style="fill:#ff0000;stroke:#ff0000;" x="255.377865" xlink:href="#m6e19b43718" y="155.818718"/>
     <use style="fill:#ff0000;stroke:#ff0000;" x="251.879581" xlink:href="#m6e19b43718" y="102.839994"/>
     <use style="fill:#ff0000;stroke:#ff0000;" x="293.162526" xlink:href="#m6e19b43718" y="92.060093"/>
     <use style="fill:#ff0000;stroke:#ff0000;" x="281.166359" xlink:href="#m6e19b43718" y="85.030191"/>
     <use style="fill:#ff0000;stroke:#ff0000;" x="294.793568" xlink:href="#m6e19b43718" y="120.139404"/>
     <use style="fill:#ff0000;stroke:#ff0000;" x="252.633843" xlink:href="#m6e19b43718" y="126.087696"/>
     <use style="fill:#ff0000;stroke:#ff0000;" x="258.014612" xlink:href="#m6e19b43718" y="81.875361"/>
     <use style="fill:#ff0000;stroke:#ff0000;" x="211.855232" xlink:href="#m6e19b43718" y="84.344881"/>
     <use style="fill:#ff0000;stroke:#ff0000;" x="249.541507" xlink:href="#m6e19b43718" y="157.417885"/>
     <use style="fill:#ff0000;stroke:#ff0000;" x="249.852022" xlink:href="#m6e19b43718" y="140.440763"/>
     <use style="fill:#ff0000;stroke:#ff0000;" x="221.046459" xlink:href="#m6e19b43718" y="74.547564"/>
     <use style="fill:#ff0000;stroke:#ff0000;" x="247.588516" xlink:href="#m6e19b43718" y="126.731205"/>
     <use style="fill:#ff0000;stroke:#ff0000;" x="213.115211" xlink:href="#m6e19b43718" y="67.645807"/>
     <use style="fill:#ff0000;stroke:#ff0000;" x="234.154355" xlink:href="#m6e19b43718" y="132.24761"/>
     <use style="fill:#ff0000;stroke:#ff0000;" x="210.713171" xlink:href="#m6e19b43718" y="67.917619"/>
     <use style="fill:#ff0000;stroke:#ff0000;" x="299.475225" xlink:href="#m6e19b43718" y="142.362712"/>
     <use style="fill:#ff0000;stroke:#ff0000;" x="215.526625" xlink:href="#m6e19b43718" y="121.229117"/>
     <use style="fill:#ff0000;stroke:#ff0000;" x="232.933822" xlink:href="#m6e19b43718" y="161.652889"/>
     <use style="fill:#ff0000;stroke:#ff0000;" x="298.794135" xlink:href="#m6e19b43718" y="55.554545"/>
     <use style="fill:#ff0000;stroke:#ff0000;" x="202.948614" xlink:href="#m6e19b43718" y="63.595998"/>
     <use style="fill:#ff0000;stroke:#ff0000;" x="256.833485" xlink:href="#m6e19b43718" y="146.206855"/>
     <use style="fill:#ff0000;stroke:#ff0000;" x="195.57491" xlink:href="#m6e19b43718" y="119.660111"/>
     <use style="fill:#ff0000;stroke:#ff0000;" x="218.599581" xlink:href="#m6e19b43718" y="74.192381"/>
     <use style="fill:#ff0000;stroke:#ff0000;" x="227.218472" xlink:href="#m6e19b43718" y="91.303627"/>
     <use style="fill:#ff0000;stroke:#ff0000;" x="274.597037" xlink:href="#m6e19b43718" y="72.303391"/>
    </g>
   </g>
   <g id="line2d_12">
    <defs>
     <path d="M 0 5 
C 1.326016 5 2.597899 4.473168 3.535534 3.535534 
C 4.473168 2.597899 5 1.326016 5 0 
C 5 -1.326016 4.473168 -2.597899 3.535534 -3.535534 
C 2.597899 -4.473168 1.326016 -5 0 -5 
C -1.326016 -5 -2.597899 -4.473168 -3.535534 -3.535534 
C -4.473168 -2.597899 -5 -1.326016 -5 0 
C -5 1.326016 -4.473168 2.597899 -3.535534 3.535534 
C -2.597899 4.473168 -1.326016 5 0 5 
z
" id="m29c1212c4e" style="stroke:#00ff00;"/>
    </defs>
    <g clip-path="url(#p74b45bc58d)">
     <use style="fill:#00ff00;stroke:#00ff00;" x="208.208788" xlink:href="#m29c1212c4e" y="276.07966"/>
     <use style="fill:#00ff00;stroke:#00ff00;" x="223.02322" xlink:href="#m29c1212c4e" y="250.342733"/>
     <use style="fill:#00ff00;stroke:#00ff00;" x="259.4848" xlink:href="#m29c1212c4e" y="268.920149"/>
     <use style="fill:#00ff00;stroke:#00ff00;" x="256.607928" xlink:href="#m29c1212c4e" y="298.109776"/>
     <use style="fill:#00ff00;stroke:#00ff00;" x="250.153708" xlink:href="#m29c1212c4e" y="250.355655"/>
     <use style="fill:#00ff00;stroke:#00ff00;" x="259.013771" xlink:href="#m29c1212c4e" y="271.600523"/>
     <use style="fill:#00ff00;stroke:#00ff00;" x="260.25588" xlink:href="#m29c1212c4e" y="248.632092"/>
     <use style="fill:#00ff00;stroke:#00ff00;" x="265.696484" xlink:href="#m29c1212c4e" y="270.483552"/>
     <use style="fill:#00ff00;stroke:#00ff00;" x="295.995237" xlink:href="#m29c1212c4e" y="235.317411"/>
     <use style="fill:#00ff00;stroke:#00ff00;" x="277.704917" xlink:href="#m29c1212c4e" y="285.849937"/>
     <use style="fill:#00ff00;stroke:#00ff00;" x="246.966153" xlink:href="#m29c1212c4e" y="293.95207"/>
     <use style="fill:#00ff00;stroke:#00ff00;" x="243.556486" xlink:href="#m29c1212c4e" y="258.464363"/>
     <use style="fill:#00ff00;stroke:#00ff00;" x="239.439429" xlink:href="#m29c1212c4e" y="271.510765"/>
     <use style="fill:#00ff00;stroke:#00ff00;" x="254.986539" xlink:href="#m29c1212c4e" y="250.231726"/>
     <use style="fill:#00ff00;stroke:#00ff00;" x="242.868028" xlink:href="#m29c1212c4e" y="250.41953"/>
     <use style="fill:#00ff00;stroke:#00ff00;" x="273.317966" xlink:href="#m29c1212c4e" y="253.421599"/>
     <use style="fill:#00ff00;stroke:#00ff00;" x="252.553818" xlink:href="#m29c1212c4e" y="266.241154"/>
     <use style="fill:#00ff00;stroke:#00ff00;" x="254.351867" xlink:href="#m29c1212c4e" y="237.933956"/>
     <use style="fill:#00ff00;stroke:#00ff00;" x="192.278472" xlink:href="#m29c1212c4e" y="256.054977"/>
     <use style="fill:#00ff00;stroke:#00ff00;" x="287.067958" xlink:href="#m29c1212c4e" y="251.06478"/>
     <use style="fill:#00ff00;stroke:#00ff00;" x="220.285642" xlink:href="#m29c1212c4e" y="302.645455"/>
     <use style="fill:#00ff00;stroke:#00ff00;" x="220.850146" xlink:href="#m29c1212c4e" y="255.053626"/>
     <use style="fill:#00ff00;stroke:#00ff00;" x="260.549216" xlink:href="#m29c1212c4e" y="198.822358"/>
     <use style="fill:#00ff00;stroke:#00ff00;" x="288.221718" xlink:href="#m29c1212c4e" y="222.502662"/>
     <use style="fill:#00ff00;stroke:#00ff00;" x="311.318182" xlink:href="#m29c1212c4e" y="267.572079"/>
     <use style="fill:#00ff00;stroke:#00ff00;" x="275.25148" xlink:href="#m29c1212c4e" y="290.108782"/>
     <use style="fill:#00ff00;stroke:#00ff00;" x="303.984283" xlink:href="#m29c1212c4e" y="286.33732"/>
     <use style="fill:#00ff00;stroke:#00ff00;" x="233.546748" xlink:href="#m29c1212c4e" y="258.333138"/>
     <use style="fill:#00ff00;stroke:#00ff00;" x="267.074947" xlink:href="#m29c1212c4e" y="239.973757"/>
    </g>
   </g>
   <g id="line2d_13">
    <defs>
     <path d="M -5 0 
L 5 0 
M 0 5 
L 0 -5 
" id="m91262baff8" style="stroke:#0000ff;"/>
    </defs>
    <g clip-path="url(#p74b45bc58d)">
     <use style="fill:#0000ff;stroke:#0000ff;" x="113.743693" xlink:href="#m91262baff8" y="181.062176"/>
     <use style="fill:#0000ff;stroke:#0000ff;" x="93.918601" xlink:href="#m91262baff8" y="270.605143"/>
     <use style="fill:#0000ff;stroke:#0000ff;" x="104.532866" xlink:href="#m91262baff8" y="259.234078"/>
     <use style="fill:#0000ff;stroke:#0000ff;" x="77.0505" xlink:href="#m91262baff8" y="232.29265"/>
     <use style="fill:#0000ff;stroke:#0000ff;" x="106.207819" xlink:href="#m91262baff8" y="200.836967"/>
     <use style="fill:#0000ff;stroke:#0000ff;" x="93.61168" xlink:href="#m91262baff8" y="245.367844"/>
     <use style="fill:#0000ff;stroke:#0000ff;" x="74.071735" xlink:href="#m91262baff8" y="172.892203"/>
     <use style="fill:#0000ff;stroke:#0000ff;" x="67.035669" xlink:href="#m91262baff8" y="266.37669"/>
     <use style="fill:#0000ff;stroke:#0000ff;" x="118.024327" xlink:href="#m91262baff8" y="279.403752"/>
     <use style="fill:#0000ff;stroke:#0000ff;" x="113.981146" xlink:href="#m91262baff8" y="282.380249"/>
     <use style="fill:#0000ff;stroke:#0000ff;" x="105.171509" xlink:href="#m91262baff8" y="250.377168"/>
     <use style="fill:#0000ff;stroke:#0000ff;" x="101.395129" xlink:href="#m91262baff8" y="271.011316"/>
     <use style="fill:#0000ff;stroke:#0000ff;" x="121.060694" xlink:href="#m91262baff8" y="242.468514"/>
     <use style="fill:#0000ff;stroke:#0000ff;" x="102.244491" xlink:href="#m91262baff8" y="298.164226"/>
     <use style="fill:#0000ff;stroke:#0000ff;" x="72.158601" xlink:href="#m91262baff8" y="269.578562"/>
     <use style="fill:#0000ff;stroke:#0000ff;" x="57.681818" xlink:href="#m91262baff8" y="275.461926"/>
     <use style="fill:#0000ff;stroke:#0000ff;" x="164.513952" xlink:href="#m91262baff8" y="258.457968"/>
     <use style="fill:#0000ff;stroke:#0000ff;" x="113.91332" xlink:href="#m91262baff8" y="257.880347"/>
     <use style="fill:#0000ff;stroke:#0000ff;" x="107.885042" xlink:href="#m91262baff8" y="272.629728"/>
     <use style="fill:#0000ff;stroke:#0000ff;" x="113.677484" xlink:href="#m91262baff8" y="256.640455"/>
     <use style="fill:#0000ff;stroke:#0000ff;" x="101.802783" xlink:href="#m91262baff8" y="241.139071"/>
     <use style="fill:#0000ff;stroke:#0000ff;" x="109.174468" xlink:href="#m91262baff8" y="233.4592"/>
     <use style="fill:#0000ff;stroke:#0000ff;" x="110.62348" xlink:href="#m91262baff8" y="289.258285"/>
     <use style="fill:#0000ff;stroke:#0000ff;" x="145.061124" xlink:href="#m91262baff8" y="212.982492"/>
     <use style="fill:#0000ff;stroke:#0000ff;" x="134.061196" xlink:href="#m91262baff8" y="279.451426"/>
     <use style="fill:#0000ff;stroke:#0000ff;" x="97.25223" xlink:href="#m91262baff8" y="228.790399"/>
     <use style="fill:#0000ff;stroke:#0000ff;" x="127.344222" xlink:href="#m91262baff8" y="256.379567"/>
     <use style="fill:#0000ff;stroke:#0000ff;" x="75.149559" xlink:href="#m91262baff8" y="257.623682"/>
     <use style="fill:#0000ff;stroke:#0000ff;" x="88.512987" xlink:href="#m91262baff8" y="238.72484"/>
     <use style="fill:#0000ff;stroke:#0000ff;" x="120.393728" xlink:href="#m91262baff8" y="251.426904"/>
     <use style="fill:#0000ff;stroke:#0000ff;" x="135.932128" xlink:href="#m91262baff8" y="284.28252"/>
    </g>
   </g>
   <g id="line2d_14">
    <defs>
     <path d="M 0 6 
C 1.591219 6 3.117479 5.367802 4.242641 4.242641 
C 5.367802 3.117479 6 1.591219 6 0 
C 6 -1.591219 5.367802 -3.117479 4.242641 -4.242641 
C 3.117479 -5.367802 1.591219 -6 0 -6 
C -1.591219 -6 -3.117479 -5.367802 -4.242641 -4.242641 
C -5.367802 -3.117479 -6 -1.591219 -6 0 
C -6 1.591219 -5.367802 3.117479 -4.242641 4.242641 
C -3.117479 5.367802 -1.591219 6 0 6 
z
" id="mf36d5dd0fb" style="stroke:#000000;"/>
    </defs>
    <g clip-path="url(#p74b45bc58d)">
     <use style="stroke:#000000;" x="246.544729" xlink:href="#mf36d5dd0fb" y="107.584615"/>
     <use style="stroke:#000000;" x="256.021166" xlink:href="#mf36d5dd0fb" y="260.908124"/>
     <use style="stroke:#000000;" x="105.393161" xlink:href="#mf36d5dd0fb" y="252.149689"/>
    </g>
   </g>
   <g id="patch_3">
    <path d="M 45 315 
L 45 43.2 
" style="fill:none;stroke:#000000;stroke-linecap:square;stroke-linejoin:miter;stroke-width:0.8;"/>
   </g>
   <g id="patch_4">
    <path d="M 324 315 
L 324 43.2 
" style="fill:none;stroke:#000000;stroke-linecap:square;stroke-linejoin:miter;stroke-width:0.8;"/>
   </g>
   <g id="patch_5">
    <path d="M 45 315 
L 324 315 
" style="fill:none;stroke:#000000;stroke-linecap:square;stroke-linejoin:miter;stroke-width:0.8;"/>
   </g>
   <g id="patch_6">
    <path d="M 45 43.2 
L 324 43.2 
" style="fill:none;stroke:#000000;stroke-linecap:square;stroke-linejoin:miter;stroke-width:0.8;"/>
   </g>
   <g id="text_13">
    <!-- Iteration 3 -->
    <defs>
     <path d="M 9.8125 72.90625 
L 19.671875 72.90625 
L 19.671875 0 
L 9.8125 0 
z
" id="DejaVuSans-49"/>
     <path d="M 18.3125 70.21875 
L 18.3125 54.6875 
L 36.8125 54.6875 
L 36.8125 47.703125 
L 18.3125 47.703125 
L 18.3125 18.015625 
Q 18.3125 11.328125 20.140625 9.421875 
Q 21.96875 7.515625 27.59375 7.515625 
L 36.8125 7.515625 
L 36.8125 0 
L 27.59375 0 
Q 17.1875 0 13.234375 3.875 
Q 9.28125 7.765625 9.28125 18.015625 
L 9.28125 47.703125 
L 2.6875 47.703125 
L 2.6875 54.6875 
L 9.28125 54.6875 
L 9.28125 70.21875 
z
" id="DejaVuSans-74"/>
     <path d="M 56.203125 29.59375 
L 56.203125 25.203125 
L 14.890625 25.203125 
Q 15.484375 15.921875 20.484375 11.0625 
Q 25.484375 6.203125 34.421875 6.203125 
Q 39.59375 6.203125 44.453125 7.46875 
Q 49.3125 8.734375 54.109375 11.28125 
L 54.109375 2.78125 
Q 49.265625 0.734375 44.1875 -0.34375 
Q 39.109375 -1.421875 33.890625 -1.421875 
Q 20.796875 -1.421875 13.15625 6.1875 
Q 5.515625 13.8125 5.515625 26.8125 
Q 5.515625 40.234375 12.765625 48.109375 
Q 20.015625 56 32.328125 56 
Q 43.359375 56 49.78125 48.890625 
Q 56.203125 41.796875 56.203125 29.59375 
z
M 47.21875 32.234375 
Q 47.125 39.59375 43.09375 43.984375 
Q 39.0625 48.390625 32.421875 48.390625 
Q 24.90625 48.390625 20.390625 44.140625 
Q 15.875 39.890625 15.1875 32.171875 
z
" id="DejaVuSans-65"/>
     <path d="M 41.109375 46.296875 
Q 39.59375 47.171875 37.8125 47.578125 
Q 36.03125 48 33.890625 48 
Q 26.265625 48 22.1875 43.046875 
Q 18.109375 38.09375 18.109375 28.8125 
L 18.109375 0 
L 9.078125 0 
L 9.078125 54.6875 
L 18.109375 54.6875 
L 18.109375 46.1875 
Q 20.953125 51.171875 25.484375 53.578125 
Q 30.03125 56 36.53125 56 
Q 37.453125 56 38.578125 55.875 
Q 39.703125 55.765625 41.0625 55.515625 
z
" id="DejaVuSans-72"/>
     <path d="M 34.28125 27.484375 
Q 23.390625 27.484375 19.1875 25 
Q 14.984375 22.515625 14.984375 16.5 
Q 14.984375 11.71875 18.140625 8.90625 
Q 21.296875 6.109375 26.703125 6.109375 
Q 34.1875 6.109375 38.703125 11.40625 
Q 43.21875 16.703125 43.21875 25.484375 
L 43.21875 27.484375 
z
M 52.203125 31.203125 
L 52.203125 0 
L 43.21875 0 
L 43.21875 8.296875 
Q 40.140625 3.328125 35.546875 0.953125 
Q 30.953125 -1.421875 24.3125 -1.421875 
Q 15.921875 -1.421875 10.953125 3.296875 
Q 6 8.015625 6 15.921875 
Q 6 25.140625 12.171875 29.828125 
Q 18.359375 34.515625 30.609375 34.515625 
L 43.21875 34.515625 
L 43.21875 35.40625 
Q 43.21875 41.609375 39.140625 45 
Q 35.0625 48.390625 27.6875 48.390625 
Q 23 48.390625 18.546875 47.265625 
Q 14.109375 46.140625 10.015625 43.890625 
L 10.015625 52.203125 
Q 14.9375 54.109375 19.578125 55.046875 
Q 24.21875 56 28.609375 56 
Q 40.484375 56 46.34375 49.84375 
Q 52.203125 43.703125 52.203125 31.203125 
z
" id="DejaVuSans-61"/>
     <path d="M 9.421875 54.6875 
L 18.40625 54.6875 
L 18.40625 0 
L 9.421875 0 
z
M 9.421875 75.984375 
L 18.40625 75.984375 
L 18.40625 64.59375 
L 9.421875 64.59375 
z
" id="DejaVuSans-69"/>
     <path d="M 30.609375 48.390625 
Q 23.390625 48.390625 19.1875 42.75 
Q 14.984375 37.109375 14.984375 27.296875 
Q 14.984375 17.484375 19.15625 11.84375 
Q 23.34375 6.203125 30.609375 6.203125 
Q 37.796875 6.203125 41.984375 11.859375 
Q 46.1875 17.53125 46.1875 27.296875 
Q 46.1875 37.015625 41.984375 42.703125 
Q 37.796875 48.390625 30.609375 48.390625 
z
M 30.609375 56 
Q 42.328125 56 49.015625 48.375 
Q 55.71875 40.765625 55.71875 27.296875 
Q 55.71875 13.875 49.015625 6.21875 
Q 42.328125 -1.421875 30.609375 -1.421875 
Q 18.84375 -1.421875 12.171875 6.21875 
Q 5.515625 13.875 5.515625 27.296875 
Q 5.515625 40.765625 12.171875 48.375 
Q 18.84375 56 30.609375 56 
z
" id="DejaVuSans-6f"/>
     <path d="M 54.890625 33.015625 
L 54.890625 0 
L 45.90625 0 
L 45.90625 32.71875 
Q 45.90625 40.484375 42.875 44.328125 
Q 39.84375 48.1875 33.796875 48.1875 
Q 26.515625 48.1875 22.3125 43.546875 
Q 18.109375 38.921875 18.109375 30.90625 
L 18.109375 0 
L 9.078125 0 
L 9.078125 54.6875 
L 18.109375 54.6875 
L 18.109375 46.1875 
Q 21.34375 51.125 25.703125 53.5625 
Q 30.078125 56 35.796875 56 
Q 45.21875 56 50.046875 50.171875 
Q 54.890625 44.34375 54.890625 33.015625 
z
" id="DejaVuSans-6e"/>
     <path id="DejaVuSans-20"/>
     <path d="M 40.578125 39.3125 
Q 47.65625 37.796875 51.625 33 
Q 55.609375 28.21875 55.609375 21.1875 
Q 55.609375 10.40625 48.1875 4.484375 
Q 40.765625 -1.421875 27.09375 -1.421875 
Q 22.515625 -1.421875 17.65625 -0.515625 
Q 12.796875 0.390625 7.625 2.203125 
L 7.625 11.71875 
Q 11.71875 9.328125 16.59375 8.109375 
Q 21.484375 6.890625 26.8125 6.890625 
Q 36.078125 6.890625 40.9375 10.546875 
Q 45.796875 14.203125 45.796875 21.1875 
Q 45.796875 27.640625 41.28125 31.265625 
Q 36.765625 34.90625 28.71875 34.90625 
L 20.21875 34.90625 
L 20.21875 43.015625 
L 29.109375 43.015625 
Q 36.375 43.015625 40.234375 45.921875 
Q 44.09375 48.828125 44.09375 54.296875 
Q 44.09375 59.90625 40.109375 62.90625 
Q 36.140625 65.921875 28.71875 65.921875 
Q 24.65625 65.921875 20.015625 65.03125 
Q 15.375 64.15625 9.8125 62.3125 
L 9.8125 71.09375 
Q 15.4375 72.65625 20.34375 73.4375 
Q 25.25 74.21875 29.59375 74.21875 
Q 40.828125 74.21875 47.359375 69.109375 
Q 53.90625 64.015625 53.90625 55.328125 
Q 53.90625 49.265625 50.4375 45.09375 
Q 46.96875 40.921875 40.578125 39.3125 
z
" id="DejaVuSans-33"/>
    </defs>
    <g transform="translate(153.325312 37.2)scale(0.12 -0.12)">
     <use xlink:href="#DejaVuSans-49"/>
     <use x="29.492188" xlink:href="#DejaVuSans-74"/>
     <use x="68.701172" xlink:href="#DejaVuSans-65"/>
     <use x="130.224609" xlink:href="#DejaVuSans-72"/>
     <use x="171.337891" xlink:href="#DejaVuSans-61"/>
     <use x="232.617188" xlink:href="#DejaVuSans-74"/>
     <use x="271.826172" xlink:href="#DejaVuSans-69"/>
     <use x="299.609375" xlink:href="#DejaVuSans-6f"/>
     <use x="360.791016" xlink:href="#DejaVuSans-6e"/>
     <use x="424.169922" xlink:href="#DejaVuSans-20"/>
     <use x="455.957031" xlink:href="#DejaVuSans-33"/>
    </g>
   </g>
  </g>
 </g>
 <defs>
  <clipPath id="p74b45bc58d">
   <rect height="271.8" width="279" x="45" y="43.2"/>
  </clipPath>
 </defs>
</svg>
